<svg xmlns="http://www.w3.org/2000/svg" width="129" height="30" viewBox="0 0 129 30"><path fill="#A0A0A0" fill-rule="evenodd" d="M122.453 13.182c-1.454 0-2.455 1.091-2.727 2.727h5.363c-.177-1.633-1.087-2.727-2.633-2.727h-.003zm6.091 4.91h-8.815a2.896 2.896 0 0 0 3.091 2.455 4.268 4.268 0 0 0 3.093-1.273l2.09 1.817a6.403 6.403 0 0 1-5.183 2.364 6.325 6.325 0 0 1-6.636-6.546v-.09c0-3.637 2.546-6.546 6.271-6.546 4.181 0 6.182 3.273 6.182 6.819v.09a3.06 3.06 0 0 1-.09.91h-.003zm-17.455-1.91a3.097 3.097 0 0 0-6.18 0v.09a2.916 2.916 0 0 0 3.09 2.91 2.99 2.99 0 0 0 3.09-2.887l.001-.113zm-3.545 10.728a10.912 10.912 0 0 1-5.547-1.367l1.181-2.727a8.113 8.113 0 0 0 4.273 1.182c2.455 0 3.636-1.182 3.636-3.458v-.636a4.953 4.953 0 0 1-4.09 2.09 5.615 5.615 0 0 1-5.637-5.91v-.09a5.615 5.615 0 0 1 5.636-5.91 5.19 5.19 0 0 1 4.091 1.91v-1.63h3.546v9.728c-.086 4.909-2.358 6.818-7.086 6.818h-.003zM100.634 14c-2.363 0-3.818 1.454-3.818 4.455v4.637h-3.545V10.55h3.545v2.546c.725-1.727 1.91-2.91 4-2.818v3.727l-.182-.004zm-13.272 9.18v-1.817a4.416 4.416 0 0 1-3.727 2c-2.728 0-4.273-1.818-4.273-4.727v-8.183h3.545v7c0 1.728.819 2.546 2.182 2.546 1.365 0 2.273-.91 2.273-2.545v-7h3.547V23.09h-3.547v.09zm-15.546.183a10.829 10.829 0 0 1-7-2.637l2.181-2.546a7.643 7.643 0 0 0 4.91 2.002c1.454 0 2.363-.546 2.363-1.546v-.091c0-.909-.544-1.367-3.363-2.09-3.365-.82-5.454-1.728-5.454-5v-.092c0-3 2.363-5 5.727-5a9.343 9.343 0 0 1 6.091 2.09l-1.91 2.728a7.884 7.884 0 0 0-4.272-1.636c-1.367 0-2.09.637-2.09 1.454v.091c0 1.091.723 1.454 3.546 2.182 3.363.91 5.18 2.09 5.18 4.91v.09c.182 3.272-2.36 5.09-5.906 5.09h-.003zm-11.728-6.546c0-2.09-1.367-3.457-3.092-3.457a3.216 3.216 0 0 0-3.091 3.457v.09a3.216 3.216 0 0 0 3.091 3.458c1.727 0 3.092-1.455 3.092-3.546v-.002zm-.091 6.363v-1.817a4.722 4.722 0 0 1-3.908 2.09c-2.91 0-5.728-2.272-5.728-6.545v-.091c0-4.18 2.726-6.545 5.728-6.545a4.805 4.805 0 0 1 3.908 1.909v-6.27h3.636v17.183h-3.632l-.004.087zm-23.092 0V6.64h12.46v3.18h-8.818v3.364h7.726v3.182h-7.726v3.457h8.909v3.182H36.913l-.008.175zm-31.909.91l14.818-7.182s.546-.364.546-.637a.699.699 0 0 0-.182-.454l-2.268-2a.639.639 0 0 1-.182-.363c.026-.163.088-.319.182-.455l7-7.545-14.273 7.638s-.545.363-.545.637c.004.169.068.33.181.454l2.27 1.998a.637.637 0 0 1 .182.363 1.118 1.118 0 0 1-.183.455l-7.546 7.09zM30 28.909A1.105 1.105 0 0 1 28.909 30H1.091A1.173 1.173 0 0 1 0 28.909V1.091C.04.506.506.041 1.091 0H28.82A1.19 1.19 0 0 1 30 1.091v27.818z"/></svg>