<svg xmlns="http://www.w3.org/2000/svg" xmlns:xlink="http://www.w3.org/1999/xlink" width="104" height="104" viewBox="0 0 104 104"><defs><path id="a" d="M0 .992h102.008V103H0z"/></defs><g fill="none" fill-rule="evenodd"><g transform="translate(1 .008)"><mask id="b" fill="#fff"><use xlink:href="#a"/></mask><path fill="#D4EDFA" d="M97.014 54.156l3.98 3.32c1.63 1.36 1.22 3.97-.75 4.77l-4.81 1.93a2.8 2.8 0 0 0-1.33 4.1l2.76 4.39c1.13 1.8-.07 4.16-2.19 4.3l-5.17.34a2.813 2.813 0 0 0-2.54 3.49l1.27 5.02c.52 2.06-1.35 3.93-3.41 3.41l-5.02-1.27c-1.7-.43-3.37.79-3.49 2.54l-.34 5.17c-.14 2.12-2.5 3.32-4.3 2.19l-4.39-2.76a2.813 2.813 0 0 0-4.1 1.33l-1.93 4.81c-.79 1.97-3.4 2.39-4.77.75l-3.32-3.98a2.81 2.81 0 0 0-4.32 0l-3.32 3.98c-1.36 1.63-3.97 1.22-4.77-.75l-1.93-4.81a2.8 2.8 0 0 0-4.1-1.33l-4.39 2.76c-1.8 1.13-4.16-.07-4.3-2.19l-.34-5.17a2.812 2.812 0 0 0-3.49-2.54l-5.02 1.27c-2.06.52-3.93-1.35-3.41-3.41l1.27-5.02a2.812 2.812 0 0 0-2.54-3.49l-5.17-.34c-2.12-.14-3.32-2.5-2.19-4.3l2.76-4.39c.93-1.48.29-3.45-1.33-4.1l-4.81-1.93c-1.97-.79-2.39-3.4-.75-4.77l3.98-3.32a2.81 2.81 0 0 0 0-4.32l-3.98-3.32c-1.63-1.36-1.22-3.98.75-4.77l4.81-1.93a2.8 2.8 0 0 0 1.33-4.1l-2.76-4.39c-1.13-1.8.07-4.16 2.19-4.3l5.17-.34a2.812 2.812 0 0 0 2.54-3.49l-1.27-5.02c-.52-2.06 1.35-3.93 3.41-3.41l5.02 1.27c1.7.43 3.37-.79 3.49-2.54l.34-5.17c.14-2.12 2.5-3.32 4.3-2.19l4.39 2.76c1.48.93 3.45.29 4.1-1.33l1.93-4.81c.79-1.97 3.4-2.39 4.77-.75l3.32 3.98a2.81 2.81 0 0 0 4.32 0l3.32-3.98c1.36-1.63 3.97-1.22 4.77.75l1.93 4.81a2.8 2.8 0 0 0 4.1 1.33l4.39-2.76c1.8-1.13 4.16.07 4.3 2.19l.34 5.17a2.812 2.812 0 0 0 3.49 2.54l5.02-1.27c2.06-.52 3.93 1.35 3.41 3.41l-1.27 5.02c-.43 1.7.79 3.37 2.54 3.49l5.17.34c2.12.14 3.32 2.5 2.19 4.3l-2.76 4.39a2.812 2.812 0 0 0 1.33 4.1l4.81 1.93c1.97.79 2.39 3.4.75 4.77l-3.98 3.32a2.81 2.81 0 0 0 0 4.32" mask="url(#b)"/></g><path fill="#5387C6" d="M75.004 59.544v.46c0 5.21-1.69 10.01-4.56 13.91l-12.44-1.91v-2.01c.38-.28.74-.59 1.07-.92a9.969 9.969 0 0 0 2.93-7.07c1.39 0 2.55-.93 2.89-2.21 1.32.14 2.7.21 4.11.21 2.1 0 4.12-.16 6-.46"/><path fill="#FAAF41" d="M51.004 52.004c0 4.42 8.06 8 18 8s18-3.58 18-8c0 0-6-4-6-11h-24c0 7-6 11-6 11"/><path fill="#310E31" d="M69.004 61.004c-10.65 0-19-3.95-19-9 0-.55.45-1 1-1s1 .45 1 1c0 3.38 6.83 7 17 7s17-3.62 17-7c0-.55.45-1 1-1s1 .45 1 1c0 5.05-8.35 9-19 9"/><path fill="#FCDACE" d="M69.004 60.004c3.31 0 6-2.69 6-6v-3.48c0-.29-.23-.52-.52-.52h-10.96c-.29 0-.52.23-.52.52v3.48c0 3.31 2.69 6 6 6"/><path fill="#310E31" d="M64.004 51.004v3c0 2.76 2.24 5 5 5s5-2.24 5-5v-3h-10zm5 10c-3.86 0-7-3.14-7-7v-3.48c0-.84.68-1.52 1.52-1.52h10.95c.84 0 1.52.68 1.52 1.52v3.48c.01 3.86-3.13 7-6.99 7z"/><path fill="#FAC3B2" d="M64.104 54.944c-.06-.31-.1-.62-.1-.94v-3h10v3c0 .71-.15 1.38-.42 1.99a10.937 10.937 0 0 1-4.58 1.01c-.12 0-.24 0-.35-.01a1.587 1.587 0 0 0-1.65 1.58 5.1 5.1 0 0 1-2.58-2.59h-.01l-.03-.1a4.74 4.74 0 0 1-.24-.74c-.01-.06-.03-.13-.04-.2"/><path fill="#FCDACE" d="M59.004 35.004v-3c0-5.52 4.48-10 10-10s10 4.48 10 10v3c1.66 0 3 1.34 3 3s-1.34 3-3 3v2c0 5.52-7 11-10 11s-10-5.48-10-11v-2c-1.66 0-3-1.34-3-3s1.34-3 3-3"/><path fill="#310E31" d="M69.004 23.004c-4.96 0-9 4.04-9 9v3c0 .55-.45 1-1 1-1.1 0-2 .9-2 2s.9 2 2 2c.55 0 1 .45 1 1v2c0 5.03 6.62 10 9 10s9-4.97 9-10v-2c0-.55.45-1 1-1 1.1 0 2-.9 2-2s-.9-2-2-2c-.55 0-1-.45-1-1v-3c0-4.96-4.04-9-9-9m0 32c-3.44 0-11-5.8-11-12v-1.13c-1.72-.45-3-2.01-3-3.87 0-1.86 1.28-3.43 3-3.87v-2.13c0-6.07 4.93-11 11-11s11 4.93 11 11v2.13c1.72.45 3 2.01 3 3.87 0 1.86-1.28 3.43-3 3.87v1.13c0 6.2-7.56 12-11 12"/><path fill="#FAC3B2" d="M59.004 36.004c.55 0 1-.45 1-1v-3c0-4.96 4.04-9 9-9-3.31 0-6 4.04-6 9v11c0 5.03 4.41 10 6 10-2.38 0-9-4.97-9-10v-2c0-.55-.45-1-1-1-1.1 0-2-.9-2-2s.9-2 2-2"/><path fill="#310E31" d="M64.004 38.004c0 .55.45 1 1 1s1-.45 1-1-.45-1-1-1-1 .45-1 1"/><path fill="#F0584B" d="M67.504 47.004c0 .83.67 1.5 1.5 1.5s1.5-.67 1.5-1.5-.67-1.5-1.5-1.5-1.5.67-1.5 1.5"/><path fill="#FAC3B2" d="M69.004 44.194c-.52 0-1-.21-1.37-.6-.19-.2-.18-.52.02-.71.2-.19.52-.18.71.02.17.18.4.28.64.28s.46-.1.64-.28c.19-.2.5-.21.71-.02.2.19.21.51.02.71-.37.39-.85.6-1.37.6"/><path fill="#310E31" d="M67.004 35.504l-1.28-.05c-.41-.01-.82.02-1.23.07-.82.11-1.63.33-2.35.71-.13.07-.29.02-.36-.11-.07-.12-.02-.28.09-.35.76-.5 1.62-.82 2.49-1.01.44-.1.89-.16 1.34-.2l1.3-.06c.28-.01.51.2.52.48.01.28-.2.51-.48.52h-.04zm4-1l1.31.06c.45.04.9.1 1.34.2.88.2 1.73.51 2.49 1.01.12.08.16.25.08.37a.27.27 0 0 1-.35.09c-.73-.38-1.53-.61-2.35-.71-.41-.05-.82-.07-1.23-.07l-1.29.05c-.28.01-.51-.2-.52-.48-.01-.28.2-.51.48-.52h.04zm1 3.5c0 .55.45 1 1 1s1-.45 1-1-.45-1-1-1-1 .45-1 1"/><path fill="#F0584B" d="M69.004 47.494c-1.2 0-2.4-.37-3.31-1.1a.505.505 0 0 1-.08-.7c.17-.21.49-.25.7-.08 1.48 1.19 3.89 1.19 5.37 0 .22-.17.53-.14.7.08.17.22.14.53-.08.7-.9.73-2.1 1.1-3.3 1.1"/><path fill="#310E31" d="M78.504 37.004c.28 0 .5-.22.5-.5v-2c0-.28-.22-.5-.5-.5s-.5.22-.5.5v2c0 .28.22.5.5.5m-19 0c.28 0 .5-.22.5-.5v-3c0-.28-.22-.5-.5-.5s-.5.22-.5.5v3c0 .28.22.5.5.5"/><path fill="#FAC3B2" d="M74.504 40.004a1.5 1.5 0 1 1 0 3 1.5 1.5 0 0 1 0-3m-11 0a1.5 1.5 0 1 1 0 3 1.5 1.5 0 0 1 0-3"/><path fill="#FAAF41" d="M59.884 25.814l1.73 1.73s7.52 7.47 16.8 7.47h1.87v-2.8c0-6.19-5.01-11.2-11.2-11.2-3.82-.01-7.19 1.89-9.2 4.8"/><path fill="#310E31" d="M80.004 36.004c-10.21 0-20.24-8.88-20.67-9.25a.998.998 0 1 1 1.33-1.49c.1.08 9.9 8.74 19.34 8.74.55 0 1 .45 1 1s-.45 1-1 1"/><path fill="#310E31" d="M58.004 36.004c-.55 0-1-.45-1-1v-2.8c0-6.73 5.38-12.2 12-12.2s12 5.47 12 12.2c0 .55-.45 1-1 1s-1-.45-1-1c0-5.62-4.49-10.2-10-10.2s-10 4.58-10 10.2v2.8c0 .55-.45 1-1 1m-7 17c-.32 0-.64-.16-.83-.44-.31-.46-.18-1.08.27-1.39.06-.04 5.56-3.81 5.56-10.17 0-.55.45-1 1-1s1 .45 1 1c0 7.45-6.18 11.66-6.45 11.83-.17.12-.36.17-.55.17m36 0c-.19 0-.38-.05-.55-.17-.27-.17-6.45-4.38-6.45-11.83 0-.55.45-1 1-1s1 .45 1 1c0 6.39 5.5 10.13 5.55 10.17.46.31.58.93.28 1.39-.19.28-.51.44-.83.44"/><path fill="#310E31" d="M80.004 35.834c-.55 0-1-.45-1-1v-3c0-.55.45-1 1-1s1 .45 1 1v3c0 .55-.45 1-1 1"/><path fill="#69A6DA" d="M46.004 69.994v2.01l-13.43 1.92a23.403 23.403 0 0 1-4.57-13.92v-6c0 3.31 2.69 6 6 6s6-2.69 6-6v-1.78c.15-.09.29-.19.43-.29-.27 1.45.04 2.95.84 4.17a2.967 2.967 0 0 0-2.27 2.9c0 .83.34 1.58.88 2.12s1.29.88 2.12.88c0 3.27 1.57 6.17 4 7.99"/><path fill="#EE4827" d="M70.445 73.914c-4.28 5.82-11.171 9.59-18.94 9.59-7.77 0-14.662-3.77-18.932-9.58l13.431-1.92c0 3.31 2.69 6 6 6s6-2.69 6-6l12.44 1.91z"/><path fill="#FCDACE" d="M34.004 60.004c-3.31 0-6-2.69-6-6v-3.48c0-.29.23-.52.52-.52h10.95c.29 0 .52.23.52.52v3.48c.01 3.31-2.68 6-5.99 6"/><path fill="#310E31" d="M29.004 51.004v3c0 2.76 2.24 5 5 5s5-2.24 5-5v-3h-10zm5 10c-3.86 0-7-3.14-7-7v-3.48c0-.84.68-1.52 1.52-1.52h10.95c.84 0 1.52.68 1.52 1.52v3.48c.01 3.86-3.13 7-6.99 7z"/><path fill="#FAC3B2" d="M38.904 54.944c.06-.3.1-.62.1-.94v-3h-10v3c0 .71.15 1.38.42 1.99a10.94 10.94 0 0 0 4.58 1.01c.12 0 .24 0 .35-.01.9-.03 1.65.68 1.65 1.58a5.1 5.1 0 0 0 2.58-2.59h.01l.03-.1c.1-.24.18-.48.24-.74.01-.06.03-.13.04-.2"/><path fill="#FCDACE" d="M45.004 35.004v-2c0-6.08-4.92-11-11-11s-11 4.92-11 11v2c-1.66 0-3 1.34-3 3s1.34 3 3 3v2c0 6.08 4.92 11 11 11s11-4.92 11-11v-2c1.66 0 3-1.34 3-3s-1.34-3-3-3"/><path fill="#310E31" d="M34.004 23.004c-5.51 0-10 4.49-10 10v2c0 .55-.45 1-1 1-1.1 0-2 .9-2 2s.9 2 2 2c.55 0 1 .45 1 1v2c0 5.51 4.49 10 10 10s10-4.49 10-10v-2c0-.55.45-1 1-1 1.1 0 2-.9 2-2s-.9-2-2-2c-.55 0-1-.45-1-1v-2c0-5.51-4.49-10-10-10m0 32c-6.62 0-12-5.38-12-12v-1.13c-1.72-.45-3-2.01-3-3.87 0-1.86 1.28-3.43 3-3.87v-1.13c0-6.62 5.38-12 12-12s12 5.38 12 12v1.13c1.72.45 3 2.01 3 3.87 0 1.86-1.28 3.43-3 3.87v1.13c0 6.62-5.38 12-12 12"/><path fill="#FAC3B2" d="M45.004 36.004c-.55 0-1-.45-1-1v-2c0-5.51-4.49-10-10-10 3.31 0 6 4.49 6 10v10c0 5.51-2.69 10-6 10 5.51 0 10-4.49 10-10v-2c0-.55.45-1 1-1 1.1 0 2-.9 2-2s-.9-2-2-2"/><path fill="#FAC3B2" d="M34.004 43.004c-1.06 0-1.87-.93-1.72-1.98l.58-4.03a1.152 1.152 0 0 1 2.28 0l.58 4.03c.15 1.05-.66 1.98-1.72 1.98"/><path fill="#310E31" d="M39.004 38.004c0 .55-.45 1-1 1s-1-.45-1-1 .45-1 1-1 1 .45 1 1m-5 5.5c-1.38 0-2.5-.9-2.5-2 0-.28.22-.5.5-.5s.5.22.5.5c0 .54.69 1 1.5 1s1.5-.46 1.5-1c0-.28.22-.5.5-.5s.5.22.5.5c0 1.1-1.12 2-2.5 2m6-7a.47.47 0 0 1-.35-.15c-.55-.55-1.28-.85-2.06-.85h-.59c-.28 0-.5-.22-.5-.5s.22-.5.5-.5h.58c1.05 0 2.03.41 2.77 1.15a.495.495 0 0 1-.35.85m-12 0a.47.47 0 0 1-.35-.15c-.2-.19-.2-.51 0-.71.74-.74 1.72-1.15 2.77-1.15h.58c.28 0 .5.22.5.5s-.22.5-.5.5h-.59c-.78 0-1.51.3-2.06.85-.09.11-.22.16-.35.16"/><path fill="#F0584B" d="M34.004 48.004c-.91 0-1.75-.42-2.38-1.18a.512.512 0 0 1-.07-.53c.08-.18.26-.29.45-.29h4c.19 0 .37.11.45.29.08.18.06.38-.07.53-.63.76-1.47 1.18-2.38 1.18"/><path fill="#C87629" d="M42.124 43.774a.317.317 0 0 0-.36.05c-.91.89-2.11 1.33-3.19 1.25a3.457 3.457 0 0 1-2.57-1.41c-.47-.63-2-.66-2-.66s-1.53.03-1.99.66c-.57.77-1.48 1.34-2.57 1.41-1.08.08-2.28-.36-3.19-1.25a.301.301 0 0 0-.36-.05c-.15.08-.2.26-.12.41.67 1.24 1.9 2.3 3.46 2.68 1.55.4 3.36.05 4.77-.95h.02c1.41 1 3.22 1.35 4.77.95 1.56-.38 2.8-1.44 3.46-2.68a.32.32 0 0 0-.13-.41"/><path fill="#310E31" d="M34.004 45.414c.11 0 .21.03.3.1 1.28.9 2.94 1.24 4.35.87a4.97 4.97 0 0 0 2.4-1.4c-.79.45-1.67.66-2.52.6a3.941 3.941 0 0 1-2.94-1.61c-.21-.28-1.06-.45-1.6-.46-.5.01-1.36.17-1.58.46-.7.95-1.77 1.54-2.94 1.61-.85.07-1.73-.15-2.51-.6a4.94 4.94 0 0 0 2.39 1.4c1.41.37 3.08.03 4.36-.87.08-.07.19-.1.29-.1zm3.49 2.11c-1.2 0-2.44-.35-3.49-1.01-1.47.93-3.32 1.25-4.9.84a5.99 5.99 0 0 1-3.78-2.93c-.1-.19-.12-.4-.06-.61a.804.804 0 0 1 1.34-.34c.79.77 1.83 1.19 2.8 1.11.88-.06 1.68-.5 2.21-1.21.58-.79 2.09-.86 2.39-.87.32.01 1.82.08 2.41.87.52.71 1.33 1.15 2.2 1.21.97.07 2.02-.34 2.81-1.11.25-.24.63-.3.94-.14.19.1.33.27.39.48.06.21.04.42-.06.61-.78 1.44-2.19 2.54-3.78 2.93-.47.11-.94.17-1.42.17zm14.01 36.98c-13.51 0-24.5-10.99-24.5-24.5 0-.55.45-1 1-1s1 .45 1 1c0 12.41 10.09 22.5 22.5 22.5s22.5-10.09 22.5-22.5c0-.55.45-1 1-1s1 .45 1 1c0 13.51-10.99 24.5-24.5 24.5"/><path fill="#310E31" d="M51.504 88.504c-15.99 0-29-12.79-29-28.5 0-.28.22-.5.5-.5s.5.22.5.5c0 15.16 12.56 27.5 28 27.5 14.63 0 26.9-11.22 27.93-25.54a.503.503 0 0 1 1 .08c-1.07 14.84-13.78 26.46-28.93 26.46m-7-50.5c-.28 0-.5-.22-.5-.5v-2c0-.28.22-.5.5-.5s.5.22.5.5v2c0 .28-.22.5-.5.5m-21 0c-.28 0-.5-.22-.5-.5v-2c0-.28.22-.5.5-.5s.5.22.5.5v2c0 .28-.22.5-.5.5"/><path fill="#FAC3B2" d="M35.144 50.604a.47.47 0 0 1-.35-.15c-.42-.42-1.15-.42-1.58 0-.2.2-.51.2-.71 0-.2-.19-.2-.51 0-.71.8-.8 2.19-.8 2.99 0 .2.2.2.51 0 .71a.47.47 0 0 1-.35.15"/><path fill="#C87629" d="M34.004 21.004c-7.18 0-13 5.82-13 13 0 .16.01.31.03.47.28 2.43 3.97 2.1 3.97-.34v-.13c0-1.72.48-3.33 1.32-4.7.77-1.25 2.59-1.2 3.29.1.36.66.88 1.26 1.57 1.74 1.67 1.15 3.96 1.15 5.63 0 .69-.48 1.21-1.08 1.57-1.74.7-1.29 2.52-1.35 3.29-.1a8.969 8.969 0 0 1 1.33 4.7v.12c0 2.45 3.69 2.78 3.97.34.02-.15.03-.3.03-.46 0-7.18-5.82-13-13-13"/><path fill="#310E31" d="M34.004 22.004c-6.62 0-12 5.38-12 12 0 .12.01.24.02.35.09.75.71.79.97.78.1-.01 1.01-.08 1.01-1.01v-.12c0-1.85.51-3.65 1.47-5.22.55-.9 1.51-1.42 2.55-1.38 1.05.03 1.97.6 2.47 1.53.3.55.72 1.02 1.26 1.39 1.32.91 3.17.91 4.49 0 .54-.37.96-.84 1.26-1.39.5-.93 1.42-1.5 2.47-1.53 1.04-.04 2 .49 2.55 1.38a9.909 9.909 0 0 1 1.48 5.22v.12c0 .92.9 1 1.01 1.01.26.01.89-.03.97-.78.01-.11.02-.23.02-.35 0-6.62-5.38-12-12-12m-11.08 15.13c-1.51 0-2.71-1.05-2.88-2.55-.03-.19-.04-.38-.04-.58 0-7.72 6.28-14 14-14s14 6.28 14 14c0 .2-.01.39-.03.58-.18 1.57-1.47 2.64-3.08 2.55-1.44-.08-2.89-1.14-2.89-3v-.13c0-1.48-.41-2.92-1.18-4.17a.88.88 0 0 0-.79-.43c-.16 0-.54.06-.77.48a5.97 5.97 0 0 1-1.88 2.09 6 6 0 0 1-8.65-2.09c-.22-.42-.61-.47-.77-.48-.16 0-.54.03-.79.43a8.025 8.025 0 0 0-1.17 4.17v.12c0 1.86-1.45 2.92-2.89 3-.07.01-.13.01-.19.01"/><path fill="#D98B36" d="M23.644 29.504a.5.5 0 0 1-.45-.72c1.18-2.43 3.16-4.41 5.59-5.59a.5.5 0 1 1 .44.9c-2.22 1.08-4.04 2.9-5.12 5.12a.5.5 0 0 1-.46.29"/><path fill="#310E31" d="M31.004 38.004c0 .55-.45 1-1 1s-1-.45-1-1 .45-1 1-1 1 .45 1 1"/><path fill="#FCDACE" d="M52.004 78.004c-3.31 0-6-2.69-6-6v-3.48c0-.29.23-.52.52-.52h10.95c.29 0 .52.23.52.52v3.48c.01 3.31-2.68 6-5.99 6"/><path fill="#310E31" d="M47.004 69.004v3c0 2.76 2.24 5 5 5s5-2.24 5-5v-3h-10zm5 10c-3.86 0-7-3.14-7-7v-3.48c0-.84.68-1.52 1.52-1.52h10.95c.84 0 1.52.68 1.52 1.52v3.48c.01 3.86-3.13 7-6.99 7z"/><path fill="#FAC3B2" d="M56.904 72.944c.06-.3.1-.62.1-.94v-3h-10v3c0 .71.15 1.38.42 1.99 1.39.64 2.94 1.01 4.58 1.01.12 0 .24 0 .35-.01a1.587 1.587 0 0 1 1.65 1.58 5.1 5.1 0 0 0 2.58-2.59h.01l.03-.1a4.74 4.74 0 0 0 .24-.74c.01-.06.03-.13.04-.2"/><path fill="#FCDACE" d="M42.004 56.004v-1c0-5.52 4.48-10 10-10s10 4.48 10 10v1c1.66 0 3 1.34 3 3s-1.34 3-3 3c0 5.52-4.48 10-10 10s-10-4.48-10-10c-1.66 0-3-1.34-3-3s1.34-3 3-3"/><path fill="#310E31" d="M52.004 46.004c-4.96 0-9 4.04-9 9v1c0 .55-.45 1-1 1-1.1 0-2 .9-2 2s.9 2 2 2c.55 0 1 .45 1 1 0 4.96 4.04 9 9 9s9-4.04 9-9c0-.55.45-1 1-1 1.1 0 2-.9 2-2s-.9-2-2-2c-.55 0-1-.45-1-1v-1c0-4.96-4.04-9-9-9m0 27c-5.77 0-10.51-4.46-10.96-10.12a4 4 0 0 1-3.04-3.88c0-1.86 1.28-3.43 3-3.87v-.13c0-6.07 4.93-11 11-11s11 4.93 11 11v.13c1.72.44 3 2.01 3 3.87a4 4 0 0 1-3.04 3.88c-.45 5.66-5.19 10.12-10.96 10.12"/><path fill="#FAC3B2" d="M61.954 57.004c-.53.01-.95-.47-.95-1v-4c0-4.76-3.71-8.65-8.39-8.97a6.001 6.001 0 0 1 5.39 5.97v.85c-1.91-.22-4.06-.02-5.53.62-2.45 1.07-6.12 1.2-8.87.39l-.6 1.46v4.7c0 .51-.39.92-.88.98.04 0 .07.01.11 0 .34-.07.61-.27.72-.53l.02-.04c.36-.87 1.27-1.35 2.2-1.21 2.47.39 5.3.14 7.31-.73.96-.42 2.2-.65 3.48-.7 1.12-.04 2.05.88 2.05 2v8.21a6 6 0 0 1-5.39 5.97c4.67-.32 8.38-4.21 8.38-8.97 0-.53.42-1.01.95-1 1.12.03 2.05-.88 2.05-2s-.92-2.03-2.05-2"/><path fill="#D98B36" d="M42.004 57.004a5.711 5.711 0 0 1-1.38-5.83c.67-1.99 1.85-3.75 3.38-5.12a11.96 11.96 0 0 1 8-3.06c3.07 0 5.88 1.16 8 3.06 1.53 1.37 2.71 3.13 3.38 5.12.69 2.04.15 4.3-1.38 5.83l-1-3c-2.49-1.33-6.51-1.33-9 0s-6.51 1.33-9 0l-1 3z"/><path fill="#310E31" d="M52.004 44.004c-2.71 0-5.32.99-7.33 2.8-1.42 1.27-2.49 2.9-3.1 4.69-.36 1.08-.3 2.24.12 3.27l.36-1.08c.09-.28.3-.5.58-.61.28-.11.58-.09.84.05 2.18 1.17 5.87 1.17 8.05 0 2.79-1.5 7.16-1.5 9.95 0 .22.12.4.32.48.56l.36 1.08c.42-1.03.48-2.2.12-3.27-.6-1.8-1.67-3.42-3.1-4.69a10.94 10.94 0 0 0-7.33-2.8m10 14c-.08 0-.15-.01-.23-.03a1 1 0 0 1-.72-.66l-.87-2.6c-2.21-1-5.64-.94-7.71.17-2.45 1.32-6.12 1.47-8.87.48l-.65 1.96a1 1 0 0 1-1.66.39c-1.78-1.78-2.42-4.47-1.62-6.85.71-2.12 1.98-4.04 3.66-5.55a13.006 13.006 0 0 1 17.34 0c1.68 1.5 2.94 3.42 3.66 5.55.8 2.38.16 5.07-1.62 6.85-.19.19-.45.29-.71.29"/><path fill="#EAA560" d="M44.004 48.704a.506.506 0 0 1-.38-.83c.33-.38.68-.75 1.05-1.07a11.05 11.05 0 0 1 5.24-2.6c.26-.05.53.12.59.4.05.27-.12.53-.4.59a9.966 9.966 0 0 0-4.76 2.36c-.33.3-.66.63-.95.98-.11.11-.25.17-.39.17"/><path fill="#C87629" d="M62.434 51.494c-.6-1.8-1.67-3.42-3.1-4.69-1.57-1.4-3.49-2.31-5.54-2.65a5.47 5.47 0 0 1 4.2 5.32c0 .84-.68 1.52-1.51 1.52h-.49c-2.34 0-2.88.55-5.2 1.74-2.49 1.27-5.32.8-7.77-.53a1.084 1.084 0 0 0-1.56.61l-.13.38c.03.54.14 1.07.35 1.57l.36-1.08c.09-.28.3-.5.58-.61.28-.11.58-.09.84.05 2.18 1.17 5.87 1.17 8.05 0 1.41-.75 3.2-1.12 4.99-1.12.84 0 1.67.09 2.47.25.92.19 1.78.48 2.53.88.21.12.37.32.45.55l.36 1.08c.42-1.02.48-2.19.12-3.27"/><path fill="#FAC3B2" d="M53.004 63.504h-2c-.28 0-.5-.22-.5-.5s.22-.5.5-.5h2c.28 0 .5.22.5.5s-.22.5-.5.5"/><path fill="#310E31" d="M57.004 59.004c0 .55-.45 1-1 1s-1-.45-1-1 .45-1 1-1 1 .45 1 1m-8 0c0 .55-.45 1-1 1s-1-.45-1-1 .45-1 1-1 1 .45 1 1m3 7.49c-1.2 0-2.4-.37-3.31-1.1a.503.503 0 0 1-.08-.7c.17-.22.49-.25.7-.08 1.48 1.19 3.89 1.19 5.37 0 .22-.17.53-.14.7.08.17.21.14.53-.08.7-.9.73-2.1 1.1-3.3 1.1"/><path fill="#FAC3B2" d="M52.004 63.504c-.28 0-.5-.22-.5-.5v-3c0-.28.22-.5.5-.5s.5.22.5.5v3c0 .28-.22.5-.5.5"/><path fill="#A25425" d="M34.724 22.044a7.01 7.01 0 0 1 6.12 5.47c.69.19 1.3.63 1.69 1.27a9.991 9.991 0 0 1 1.47 5.22v.12c0 .92.9 1 1.01 1.01.26.02.89-.03.97-.78.01-.12.02-.23.02-.35 0-6.38-5-11.59-11.28-11.96"/><path fill="#AF6328" d="M37.904 27.924c.25-1.11-1.32-1.61-1.84-.6-.18.36-.43.7-.73 1.01-1.3 1.3-3.27 1.5-4.79.64.84 1.47 2.56 2.37 4.46 1.91a3.97 3.97 0 0 0 2.88-2.88c0-.03.01-.05.02-.08"/><path fill="#FAC3B2" d="M54.504 61.004a.5.5 0 1 1 0 1 .5.5 0 0 1 0-1m2 0a.5.5 0 1 1 0 1 .5.5 0 0 1 0-1m-1 1a.5.5 0 1 1 0 1 .5.5 0 0 1 0-1m-8-1a.5.5 0 1 1 0 1 .5.5 0 0 1 0-1m2 0a.5.5 0 1 1 0 1 .5.5 0 0 1 0-1m-1 1a.5.5 0 1 1 0 1 .5.5 0 0 1 0-1"/><path fill="#310E31" d="M75.004 61.004c-.55 0-1-.45-1-1v-6c0-.55.45-1 1-1s1 .45 1 1v6c0 .55-.45 1-1 1m-47 0c-.55 0-1-.45-1-1v-6c0-.55.45-1 1-1s1 .45 1 1v6c0 .55-.45 1-1 1m42 14c-.05 0-.11 0-.17-.01l-12-2c-.54-.09-.91-.61-.82-1.15.09-.54.6-.92 1.15-.82l12 2c.54.09.91.61.82 1.15a.99.99 0 0 1-.98.83m-37 0a1 1 0 0 1-.99-.85.998.998 0 0 1 .84-1.14l13-2a.99.99 0 0 1 1.14.84.998.998 0 0 1-.84 1.14l-13 2c-.05.01-.1.01-.15.01m19 9c-.55 0-1-.45-1-1v-5c0-.55.45-1 1-1s1 .45 1 1v5c0 .55-.45 1-1 1m-29-23.5c-.28 0-.5-.22-.5-.5v-7c0-.28.22-.5.5-.5s.5.22.5.5v7c0 .28-.22.5-.5.5"/><path fill="#310E31" d="M51.504 92.494c-18.2 0-33-14.8-33-33 0-.28.22-.5.5-.5s.5.22.5.5c0 17.64 14.36 32 32 32s32-14.36 32-32c0-.28.22-.5.5-.5s.5.22.5.5c0 18.2-14.8 33-33 33"/><path fill="#310E31" d="M19.004 59.904c-.28 0-.5-.22-.5-.5v-14c0-.28.22-.5.5-.5s.5.22.5.5v14c0 .27-.22.5-.5.5"/></g></svg>