<svg xmlns="http://www.w3.org/2000/svg" width="106" height="26" viewBox="0 0 106 26"><path fill="#A0A0A0" fill-rule="evenodd" d="M32.554 7.995c1.838.838 2.966 2.031 3.965 4.158 1.193 2.579 1.193 6.254 0 8.606-2.643 5.157-8.928 6.801-13.699 3.61-2.32-1.546-3.449-4.028-3.449-7.639 0-2.191.162-3.094.774-4.48 1.096-2.482 3.32-4.158 6.608-4.996 1.128-.258 4.48.161 5.801.741zm53.893.13c2.328 1.458 3.55 3.485 3.637 5.964l.005.289v1.063l-5.544.065-5.576.096.064 1.515c.065 2.289 1.515 4.738 3.32 5.64 1.676.871 4.287.968 6.028.259 1.708-.71 1.934-.58.934.451-2.256 2.353-7.09 3.191-10.217 1.773-1.934-.903-3.707-2.482-4.577-4.126-.58-1.096-.71-1.837-.71-4.384 0-2.836.065-3.19 1-4.834.548-.967 1.515-2.192 2.16-2.708 2.675-2.127 6.994-2.643 9.476-1.064zM60.017 4.16c-.065 2.288 0 4.19.096 4.19.129 0 .903-.226 1.74-.516 4.126-1.418 7.994.645 9.477 4.996.548 1.548.483 5.125-.129 6.898-.71 2.063-2.933 4.48-5.028 5.415-1.956.87-5.675 1.02-8.826.397l-.36-.075-2.031-.45v-11.32c-.01-5.792-.137-10.2-.322-10.663-.194-.548-.645-.87-1.29-1-.515-.128-.967-.322-.967-.418 0-.226 5.899-1.515 7.188-1.612.548-.032.58.29.451 4.158zm37.292 3.19c1.225-.321 4.9-.096 6.253.388.967.322 1.032.45 1.032 1.837 0 .838.096 1.837.193 2.224.322 1.193-.451.87-1.16-.484-1-1.869-1.838-2.675-3.062-2.965-1.644-.354-2.805.032-3.481 1.225-1.193 2.063.032 3.642 4.029 5.254 3.867 1.547 5.285 3.642 4.48 6.64-.42 1.579-1.644 2.868-3.578 3.739-1.837.838-5.802.902-8.38.128l-1.773-.515-.097-2.611c-.129-2.804.258-3.352 1.032-1.515 1.096 2.643 3.803 4.48 5.834 3.965 1.128-.29 2.417-1.709 2.417-2.676 0-1.74-.838-2.546-3.771-3.77-1.547-.678-3.223-1.58-3.739-2.064-1.58-1.515-1.773-4.19-.451-6.22.612-.903 2.707-2.192 4.222-2.58zm-44.287.678c0 .322-.129.677-.29.773-.161.097-.387.548-.484.967-.096.452-.322 1.16-.515 1.612-.29.806-.323.806-1.515.322a4.949 4.949 0 0 0-2.45-.354c-2.192.29-2.224.322-2.095 6.543.097 4.9.161 5.608.71 6.22.354.387.998.677 1.546.677.484 0 .903.13.903.323s-2.03.322-5.48.322c-5.06 0-6.833-.29-4.544-.741 1.514-.323 1.805-1.547 1.772-7.8 0-6.189-.225-7.092-1.805-7.64-1.008-.346-.907-.415 2.557-1.17l.247-.054 3.868-.838.097 1.87c.065 1.03.193 1.869.355 1.869.129 0 .45-.387.676-.838.548-.967 2.418-2.515 3.482-2.87 1.224-.354 2.965.098 2.965.807zM21.209.614c.129 0 .193 1.483.161 3.288-.097 3.481-.548 4.384-1.193 2.417-.515-1.547-2.417-3.674-3.674-4.06-.518-.153-2.07-.334-3.517-.408l-.254-.012-2.708-.097-.258 1.29c-.154.648-.22 2.896-.197 5.04l.004.278.097 4.03 1.515.096c2.16.129 3.61-.613 4.254-2.224.853-2.147 1.149-1.542 1.16 2.514v.518c-.01 3.928-.274 4.598-1.063 2.705-.746-1.678-1.582-2.248-3.75-2.402l-.247-.015-2.127-.161.193 4.222c.258 5.608 1 7.155 3.32 7.155.42 0 .774.13.774.323s-2.482.322-6.77.322c-4.286 0-6.768-.129-6.768-.322 0-.194.29-.323.645-.323 1.16 0 2.288-.773 2.804-1.901.419-.967.516-2.675.548-9.863v-1.517c-.007-6.642-.071-7.362-.612-8.475C3.06 2.06 2.66 1.69 1.648 1.327l-.198-.068L0 .775l1.45-.16c1.129-.13 9.638-.13 19.759 0zm39.194 8.703c-.451.258-.516 1.128-.387 7.64.097 4.286.29 7.51.484 7.735.677.838 2.224.483 3.481-.806 1.74-1.708 2.353-4.029 2.192-8.058-.13-3.578-.742-5.254-2.321-6.22-1.064-.645-2.61-.774-3.449-.29zM26.27 8.93c-.548.58-1.031 1.515-1.257 2.579-.516 2.417-.451 7.639.129 9.895.838 3.32 3.223 4.674 5.093 2.933 1.225-1.128 1.644-3.062 1.644-7.607 0-3.416-.13-4.319-.742-5.866-1.16-2.965-3.062-3.707-4.867-1.934zm54.827-.386c-1.192.87-2.61 4.996-1.966 5.77.154.183 1.33.28 2.834.233l.228-.008 2.837-.13-.194-2.03c-.354-3.771-1.773-5.19-3.739-3.835z"/></svg>