<svg xmlns="http://www.w3.org/2000/svg" width="115" height="26" viewBox="0 0 115 26"><path fill="#A0A0A0" fill-rule="evenodd" d="M22.961 3.27l-3.217 3.254a9.961 9.961 0 0 0-6.99-2.101c-4.74.22-7.597 3.666-7.662 8.402-.062 5.132 3.085 8.669 8.005 8.798a11.99 11.99 0 0 0 5.408-.897v-5.248h-5.111l.345-4.3h9.599V23.49a19.378 19.378 0 0 1-10.286 2.496C5.47 25.755 0 21.046 0 13.097 0 5.18 5.523.121 13.056.003c3.818-.06 7.232.91 9.905 3.267zm69.901 4.76c5.427 0 8.41 3.287 8.41 9.123v1.358h-12.53a4.14 4.14 0 0 0 4.173 3.522c2.058.056 3.21-.566 4.714-2.09l2.983 2.274a9.135 9.135 0 0 1-7.559 3.56c-5.096 0-8.914-3.563-8.914-8.875 0-5.311 3.795-8.873 8.723-8.873zm-59.33 0c5.241 0 7.552 2.423 7.552 6.254h.001v11.08h-4.029l-.1-1.668c-1.236 1.53-3.242 2.082-5.309 2.082-3.112 0-6.052-1.535-6.114-5.109-.09-5.526 6.117-6 10.153-6.014h1.002v-.222c0-1.858-1.23-2.865-3.544-2.865a6.673 6.673 0 0 0-4.51 1.803l-2.642-2.675a11.466 11.466 0 0 1 7.54-2.666zm78.427 13.098a2.276 2.276 0 1 1 .07 4.552h-.05a2.278 2.278 0 0 1-.02-4.553zM60.05 3.672v4.772h4.547l-.315 3.95H60.05v6.98c0 1.593.436 2.453 2.07 2.453a7.5 7.5 0 0 0 2.481-.415l-.32 3.85a11.888 11.888 0 0 1-3.246.4c-4.307 0-5.556-1.975-5.556-5.944V3.672h4.57zm47.587 4.772l.098 2.112c.908-1.448 2.497-2.112 4.454-2.112h1.549l-.33 3.952h-1.613a3.873 3.873 0 0 0-3.916 4.045v8.924h-4.567V8.444h4.325zm-31.62-.415c4.606 0 6.06 3.288 6.06 6.71l.001 10.626h-4.57v-8.946c0-1.873-.162-4.23-2.797-4.23-2.538 0-3.549 1.83-3.549 3.962v9.214h-4.571V8.444h4.236l.097 2.163a5.735 5.735 0 0 1 5.094-2.578zm-27.728.415l.09 2.112c.913-1.448 2.5-2.112 4.462-2.112h1.137l-.354 3.95h-1.241c-2.572 0-3.85 2.064-3.85 4.046v8.925h-4.569V8.444h4.325zm63.788 13.159a1.85 1.85 0 0 0-1.904 1.794l-.001.08a1.84 1.84 0 0 0 1.856 1.825 1.85 1.85 0 0 0 .05-3.7zm.068.487c.625 0 .931.229.931.746l.001.04a.684.684 0 0 1-.681.684l.746 1.156h-.448l-.69-1.137h-.458l-.003 1.137h-.397V22.09zm-.058.338h-.541v.812l.477.002c.336 0 .637-.025.637-.428 0-.326-.295-.386-.573-.386zm-75.4-4.443h-.635c-2.164.004-5.964.11-5.95 2.374.021 3.187 6.588 2.174 6.588-1.67l-.003-.704zm56.327-6.436c-.09.004-.179.01-.268.02a4.021 4.021 0 0 0-4.004 3.404h7.951a3.553 3.553 0 0 0-3.679-3.424z"/></svg>