<svg xmlns="http://www.w3.org/2000/svg" xmlns:xlink="http://www.w3.org/1999/xlink" width="28" height="40" viewBox="0 0 28 40"><defs><path id="a" d="M0 0h28v40H0z"/></defs><g fill="none" fill-rule="evenodd"><path fill="#FFF" d="M14 36l-5 2V27h5zm11.6-19.6c.4.8.5 1.7.2 2.5s-1 1.4-1.9 1.6c-1.7.4-3 1.7-3.4 3.4-.2.8-.8 1.5-1.6 1.9-.8.3-1.7.3-2.5-.2-.7-.4-1.6-.6-2.4-.6-.8 0-1.7.2-2.4.7-.8.4-1.7.5-2.5.2s-1.4-1-1.6-1.9c-.4-1.7-1.7-3-3.4-3.4-.8-.2-1.5-.8-1.9-1.6-.3-.8-.3-1.7.2-2.5.9-1.5.9-3.3 0-4.8-.4-.8-.5-1.7-.2-2.5s1-1.4 1.9-1.6c1.7-.4 3-1.7 3.4-3.4.2-.8.8-1.5 1.6-1.9.8-.3 1.7-.3 2.5.2 1.5.9 3.3.9 4.8 0 .8-.4 1.7-.5 2.5-.2s1.4 1 1.6 1.9a4.54 4.54 0 0 0 3.4 3.4c.8.2 1.5.8 1.9 1.6.3.8.3 1.7-.2 2.5-.9 1.4-.9 3.2 0 4.7"/><path fill="#DCDBE9" d="M16.6 26.4c-.8-.5-1.7-.7-2.6-.7-.9 0-1.8.2-2.6.7-.7.5-1.6.6-2.4.3v2.2c.7.1 1.3.1 2 0 .2 0 .7-.2 1.2-.4.9-.3 1.8.3 1.8 1.2V36l5 2V26.7c-.8.3-1.7.2-2.4-.3"/><path fill="#80CAF0" d="M14 6a8 8 0 1 1 0 16 8 8 0 0 1 0-16"/><path fill="#282366" d="M14 22.5c-4.7 0-8.5-3.8-8.5-8.5S9.3 5.5 14 5.5c2.6 0 5 1.2 6.6 3.2.2.2.1.5-.1.7-.2.2-.5.1-.7-.1-1.4-1.8-3.6-2.8-5.9-2.8-4.1 0-7.5 3.4-7.5 7.5s3.4 7.5 7.5 7.5 7.5-3.4 7.5-7.5c0-.3 0-.6-.1-.9 0-.3.2-.5.4-.6.3 0 .5.2.6.4 0 .3.1.7.1 1.1.1 4.7-3.7 8.5-8.4 8.5"/><path fill="#282366" d="M14 17c-.3 0-.5-.1-.7-.3l-3-3c-.4-.4-.4-1 0-1.4.4-.4 1-.4 1.4 0l2.3 2.3 6.3-6.3c.4-.4 1-.4 1.4 0 .4.4.4 1 0 1.4l-7 7c-.2.2-.4.3-.7.3"/><mask id="b" fill="#fff"><use xlink:href="#a"/></mask><path fill="#282366" d="M25.6 16.4c.4.8.5 1.7.2 2.5s-1 1.4-1.9 1.6c-1.7.4-3 1.7-3.4 3.4-.2.8-.8 1.5-1.6 1.9-.8.3-1.7.3-2.5-.2-.7-.4-1.6-.6-2.4-.6-.8 0-1.7.2-2.4.7-.8.4-1.7.5-2.5.2s-1.4-1-1.6-1.9c-.4-1.7-1.7-3-3.4-3.4-.8-.2-1.5-.8-1.9-1.6-.3-.8-.3-1.7.2-2.5.9-1.5.9-3.3 0-4.8-.4-.8-.5-1.7-.2-2.5s1-1.4 1.9-1.6c1.7-.4 3-1.7 3.4-3.4.2-.8.8-1.5 1.6-1.9.8-.3 1.7-.3 2.5.2 1.5.9 3.3.9 4.8 0 .8-.4 1.7-.5 2.5-.2s1.4 1 1.6 1.9a4.54 4.54 0 0 0 3.4 3.4c.8.2 1.5.8 1.9 1.6.3.8.3 1.7-.2 2.5-.9 1.4-.9 3.2 0 4.7m1.7-3.8c.5-.8.7-1.7.7-2.5 0-.6-.1-1.2-.4-1.7C27 7 25.9 6 24.4 5.6c-1-.3-1.7-1-2-2C22 2.1 21 1 19.6.4 19 .1 18.3 0 17.7 0c-.8 0-1.6.2-2.3.7-.9.5-1.9.5-2.8 0-.7-.5-1.5-.7-2.3-.7-.6 0-1.3.1-1.9.4C7 .9 5.9 2.1 5.6 3.6c-.3 1-1 1.7-2 2C2.1 5.9.9 7 .4 8.4.1 9 0 9.6 0 10.3c0 .8.2 1.6.7 2.3.5.9.5 1.9 0 2.8-.5.8-.7 1.7-.7 2.5 0 .6.1 1.2.4 1.7C1 21 2.1 22 3.6 22.4c1 .3 1.7 1 2 2 .2.9.7 1.7 1.4 2.4V39c0 .3.2.7.5.9.1.1.3.1.5.1s.3 0 .4-.1l5.6-2.8 5.6 2.8c.1.1.2.1.4.1s.4 0 .5-.1c.3-.2.5-.5.5-.9v-9c0-.6-.4-1-1-1s-1 .4-1 1v7.4l-4.6-2.3c-.3-.1-.6-.1-.9 0L9 37.4v-9.5c1.2.3 2.5.1 3.6-.5.9-.5 1.9-.5 2.8 0 .7.4 1.6.7 2.4.7.6 0 1.2-.1 1.8-.4 1.4-.6 2.4-1.7 2.8-3.2.3-1 1-1.7 2-2 1.5-.4 2.6-1.4 3.2-2.8.3-.6.4-1.3.4-2 0-.8-.2-1.6-.7-2.3-.5-.9-.5-1.9 0-2.8" mask="url(#b)"/></g></svg>