<svg xmlns="http://www.w3.org/2000/svg" width="172" height="20" viewBox="0 0 172 20"><path fill="#A0A0A0" fill-rule="evenodd" d="M116.66.001c5.439 0 8.668 3.063 8.645 8.218 0 7.386-4.061 11.781-10.853 11.781-5.416 0-8.645-3.088-8.645-8.219 0-7.386 4.06-11.78 10.852-11.78zM41.491.379l-1.805 9.927a12.84 12.84 0 0 0-.285 2.399c0 1.663.736 2.47 2.256 2.47 2.259 0 2.706-1.544 3.251-4.5l.05-.274L46.74.38h6.248l-2.085 11.947c-.974 5.582-3.658 7.648-9.88 7.648-2.969 0-7.91-.855-7.91-6.507 0-.645.051-1.288.152-1.923l.086-.476L35.245.404V.379h6.247zM135.922 0c3.902 0 6.21 1.302 6.925 3.863l.057.222-5.51 1.497a1.994 1.994 0 0 0-1.9-1.235c-1.188 0-1.592.736-1.592 1.353 0 .927.808 1.188 2.78 1.806 3.344 1.02 4.987 2.921 4.965 5.819 0 5.794-5.367 6.65-8.573 6.65-4.099 0-6.75-1.534-7.433-4.249l-.05-.216 5.439-1.473a2.521 2.521 0 0 0 2.375 1.567c1.069 0 1.687-.522 1.687-1.353 0-1.046-1.093-1.331-2.043-1.592-3.61-.997-5.273-2.921-5.273-6.056 0-1.544.593-6.603 8.146-6.603zM70.133.404l-.902 5.154h-7.339L61.3 9.121h5.248l-.855 4.823h-5.248l-.998 5.655H53.2L56.549.404h13.584zm16.384 0l-.898 5.154h-7.34l-.593 3.563h5.249l-.855 4.823h-5.272l-.974 5.655h-6.247L72.937.404h13.58zm10.816.003c4.584 0 7.197 2.162 7.197 5.938 0 5.27-2.909 8.205-8.16 8.31l-.295.003H93.13l-.88 4.94h-6.246L89.353.408h7.98zM20.048.43l-1.235 6.863h5.412L25.46.43h6.247L28.36 19.595h-6.25l1.259-7.173h-5.415l-1.258 7.173h-6.248L13.8.43h6.249zM161.355.427l-.901 5.132h-4.704l-2.47 14.036h-6.244l2.42-14.036h-4.987l.9-5.132h15.986zM10.33.428L6.959 19.595H0V.428h10.33zm160.692 0v19.167h-10.33L164.04.429h6.982zm-54.72 4.56c-2.54 0-3.349 2.303-3.822 4.82a10.565 10.565 0 0 0-.214 2.114c0 1.948.95 3.112 2.564 3.112 2.541 0 3.348-2.327 3.824-4.82.142-.697.213-1.405.214-2.115 0-1.948-.95-3.112-2.566-3.112zm-19.849.431h-1.686l-.832 4.513h1.806a2.498 2.498 0 0 0 2.827-2.565c0-1.26-.737-1.948-2.115-1.948z"/></svg>