<svg xmlns="http://www.w3.org/2000/svg" xmlns:xlink="http://www.w3.org/1999/xlink" width="104" height="104" viewBox="0 0 104 104"><defs><path id="a" d="M0 .992h102.008V103H0z"/></defs><g fill="none" fill-rule="evenodd"><g transform="translate(1 .008)"><mask id="b" fill="#fff"><use xlink:href="#a"/></mask><path fill="#D4EDFA" d="M97.014 54.156l3.98 3.32c1.63 1.36 1.22 3.97-.75 4.77l-4.81 1.93a2.8 2.8 0 0 0-1.33 4.1l2.76 4.39c1.13 1.8-.07 4.16-2.19 4.3l-5.17.34a2.813 2.813 0 0 0-2.54 3.49l1.27 5.02c.52 2.06-1.35 3.93-3.41 3.41l-5.02-1.27c-1.7-.43-3.37.79-3.49 2.54l-.34 5.17c-.14 2.12-2.5 3.32-4.3 2.19l-4.39-2.76a2.813 2.813 0 0 0-4.1 1.33l-1.93 4.81c-.79 1.97-3.4 2.39-4.77.75l-3.32-3.98a2.81 2.81 0 0 0-4.32 0l-3.32 3.98c-1.36 1.63-3.97 1.22-4.77-.75l-1.93-4.81a2.8 2.8 0 0 0-4.1-1.33l-4.39 2.76c-1.8 1.13-4.16-.07-4.3-2.19l-.34-5.17a2.812 2.812 0 0 0-3.49-2.54l-5.02 1.27c-2.06.52-3.93-1.35-3.41-3.41l1.27-5.02a2.812 2.812 0 0 0-2.54-3.49l-5.17-.34c-2.12-.14-3.32-2.5-2.19-4.3l2.76-4.39c.93-1.48.29-3.45-1.33-4.1l-4.81-1.93c-1.97-.79-2.39-3.4-.75-4.77l3.98-3.32a2.81 2.81 0 0 0 0-4.32l-3.98-3.32c-1.63-1.36-1.22-3.98.75-4.77l4.81-1.93a2.8 2.8 0 0 0 1.33-4.1l-2.76-4.39c-1.13-1.8.07-4.16 2.19-4.3l5.17-.34a2.812 2.812 0 0 0 2.54-3.49l-1.27-5.02c-.52-2.06 1.35-3.93 3.41-3.41l5.02 1.27c1.7.43 3.37-.79 3.49-2.54l.34-5.17c.14-2.12 2.5-3.32 4.3-2.19l4.39 2.76c1.48.93 3.45.29 4.1-1.33l1.93-4.81c.79-1.97 3.4-2.39 4.77-.75l3.32 3.98a2.81 2.81 0 0 0 4.32 0l3.32-3.98c1.36-1.63 3.97-1.22 4.77.75l1.93 4.81a2.8 2.8 0 0 0 4.1 1.33l4.39-2.76c1.8-1.13 4.16.07 4.3 2.19l.34 5.17a2.812 2.812 0 0 0 3.49 2.54l5.02-1.27c2.06-.52 3.93 1.35 3.41 3.41l-1.27 5.02c-.43 1.7.79 3.37 2.54 3.49l5.17.34c2.12.14 3.32 2.5 2.19 4.3l-2.76 4.39a2.812 2.812 0 0 0 1.33 4.1l4.81 1.93c1.97.79 2.39 3.4.75 4.77l-3.98 3.32a2.81 2.81 0 0 0 0 4.32" mask="url(#b)"/></g><path fill="#FFF" d="M17.384 54.884c-1.64 0-3.1.71-4.12 1.82 1.33.75 2.25 2.16 2.25 3.8 0 .21-.03.42-.06.62a4.377 4.377 0 0 0-3.27-3.61c-.09-.02-.18-.05-.28-.07-.25-.04-.51-.07-.77-.07-1.93 0-3.55 1.27-4.12 3.01.6.47.99 1.18.99 1.99 0 .22-.04.43-.09.63a2.512 2.512 0 0 0-1.71-1.77c-.02-.01-.04-.01-.06-.02-.2-.06-.42-.09-.64-.09a2.5 2.5 0 0 0 0 5h11.88c3.11 0 5.62-2.52 5.62-5.62 0-3.11-2.52-5.62-5.62-5.62m74.561-26.44c-1.471 0-2.79.64-3.71 1.64a3.911 3.911 0 0 1 2.02 3.42c0 .19-.031.38-.06.56a3.938 3.938 0 0 0-2.94-3.25c-.081-.02-.161-.05-.25-.06-.22-.04-.46-.06-.691-.06-1.74 0-3.19 1.14-3.71 2.71.54.41.89 1.05.89 1.78 0 .2-.03.38-.08.56a2.24 2.24 0 0 0-1.02-1.36c-.16-.1-.34-.17-.52-.23-.02-.01-.04-.01-.06-.02-.18-.05-.37-.08-.57-.08-1.24 0-2.25 1.01-2.25 2.25s1.01 2.25 2.25 2.25h10.69a5.06 5.06 0 0 0 5.06-5.06c.01-2.79-2.26-5.05-5.05-5.05m-44.94 15.56c-2.62 0-4.96 1.13-6.6 2.92 2.14 1.2 3.6 3.46 3.6 6.08 0 .34-.05.67-.1 1-.41-2.83-2.5-5.1-5.23-5.77-.15-.04-.29-.09-.44-.11-.4-.07-.81-.11-1.23-.11-3.87-.01-7 3.13-7 6.99 0 3.87 3.13 7 7 7h10a9 9 0 0 0 0-18"/><path fill="#85C1EA" d="M52.004 79.004l-32-10 32-10 32 10z"/><path fill="#69A6DA" d="M38.004 74.504c-.21 0-.41-.14-.48-.35-.08-.26.06-.54.33-.63l32-10c.27-.08.54.07.63.33.08.26-.06.54-.33.63l-32 10c-.05.01-.1.02-.15.02"/><path fill="#69A6DA" d="M75.304 71.724l-23.23-3.22a.492.492 0 0 0-.56.43c-.04.27.15.53.43.56l21.13 2.92 2.23-.69z"/><path fill="#69A6DA" d="M77.004 69.504h-25c-.28 0-.5-.22-.5-.5s.22-.5.5-.5h25c.28 0 .5.22.5.5s-.22.5-.5.5"/><path fill="#5387C6" d="M62.504 69.504h-10.5c-.28 0-.5-.22-.5-.5s.22-.5.5-.5h10.5c.28 0 .5.22.5.5s-.22.5-.5.5"/><path fill="#406DB5" d="M57.504 69.504h-5.5c-.28 0-.5-.22-.5-.5s.22-.5.5-.5h5.5c.28 0 .5.22.5.5s-.22.5-.5.5"/><path fill="#C2E0F4" d="M31.434 71.504c-.05 0-.1-.01-.15-.02l-7.93-2.48 25.5-7.97c.27-.08.54.07.63.33.08.26-.06.54-.33.63l-19.82 6.19c-.8.25-.8 1.39 0 1.64l2.25.7c.26.08.41.36.33.63-.07.21-.27.35-.48.35"/><path fill="#69A6DA" d="M59.004 75.744a.515.515 0 0 1-.48-.35.505.505 0 0 1 .33-.63l15.82-4.94c.8-.25.8-1.39 0-1.64l-2.82-.88a.506.506 0 0 1-.33-.63c.08-.26.36-.41.63-.33l8.5 2.66-21.5 6.72a.704.704 0 0 1-.15.02"/><path fill="#310E31" d="M68.004 74.504c-.05 0-.1-.01-.15-.02l-34-10.62a.506.506 0 0 1-.33-.63c.08-.26.36-.41.63-.33l34 10.62c.26.08.41.36.33.63-.07.21-.27.35-.48.35"/><path fill="#310E31" d="M36.004 74.504c-.21 0-.41-.14-.48-.35-.08-.26.06-.54.33-.63l34-10.62c.26-.08.54.06.63.33.09.27-.06.54-.33.63l-34 10.62c-.05.01-.1.02-.15.02"/><path fill="#69A6DA" d="M52.004 97.004l-32-10v-18l32 10z"/><path fill="#5387C6" d="M51.004 89.004c0-.28-.22-.5-.5-.5s-.5.22-.5.5v3.92c0 .67-.65 1.16-1.3.95l-9.8-3.06c-.83-.26-1.4-1.03-1.4-1.91v-6.9c0-.28-.22-.5-.5-.5s-.5.22-.5.5v8.06l-7.35-2.3a.51.51 0 0 0-.63.33c-.08.26.06.54.33.63l7.65 2.39v.89c0 .28.22.5.5.5s.5-.22.5-.5v-.58l13.5 4.22v-6.64zm1 8l32-10v-18l-32 10z"/><path fill="#310E31" d="M23.354 69.004l28.65 8.95 28.65-8.95-28.65-8.95-28.65 8.95zm28.65 11c-.1 0-.2-.02-.3-.05l-32-10a.987.987 0 0 1-.7-.95c0-.44.28-.82.7-.95l32-10c.19-.06.4-.06.6 0l32 10c.42.13.7.51.7.95 0 .44-.28.82-.7.95l-32 10c-.1.03-.2.05-.3.05z"/><path fill="#310E31" d="M21.004 86.264l30 9.38v-15.9l-30-9.38v15.9zm31 11.74c-.1 0-.2-.01-.3-.05l-32-10a.985.985 0 0 1-.7-.95v-18a1 1 0 0 1 .41-.81.972.972 0 0 1 .89-.14l32 10c.42.13.7.51.7.95v18a1 1 0 0 1-.41.81c-.17.12-.38.19-.59.19z"/><path fill="#85C1EA" d="M50.504 80.604c-.05 0-.1-.01-.15-.02l-10.5-3.28a.506.506 0 0 1-.33-.63c.08-.26.36-.41.63-.33l10.5 3.28a.5.5 0 1 1-.15.979m-29-4.099c-.28 0-.5-.22-.5-.5v-5.64l12.15 3.8c.26.08.41.36.33.63-.08.26-.36.41-.63.33l-9.55-2.99c-.64-.2-1.3.28-1.3.95v2.92c0 .28-.22.5-.5.5"/><path fill="#310E31" d="M53.004 79.734v15.9l30-9.38v-15.9l-30 9.38zm-1 18.27a.996.996 0 0 1-1-1v-18c0-.44.28-.82.7-.95l32-10c.3-.1.63-.04.89.15.26.18.41.48.41.8v18c0 .44-.28.82-.7.95l-32 10c-.1.03-.2.05-.3.05z"/><path fill="#69A6DA" d="M73.034 74.504c-.21 0-.41-.14-.48-.35a.506.506 0 0 1 .33-.63l6.4-2c.27-.08.54.07.63.33.08.26-.06.54-.33.63l-6.4 2a.752.752 0 0 1-.15.02m-15.03 4.7a.515.515 0 0 1-.48-.35.505.505 0 0 1 .33-.63l6-1.88c.27-.08.54.07.63.33.08.26-.06.54-.33.63l-6 1.88a.704.704 0 0 1-.15.02"/><path fill="#406DB5" d="M82.504 75.504c-.28 0-.5.22-.5.5v8.06c0 .87-.57 1.65-1.4 1.91l-9.8 3.06c-.64.2-1.3-.28-1.3-.95v-3.08c0-.28-.22-.5-.5-.5s-.5.22-.5.5v4.75l-9.65 3.02c-.26.08-.41.36-.33.63.07.21.26.35.48.35.05 0 .1-.01.15-.02l23.5-7.34.35-.13v-10.26c0-.28-.22-.5-.5-.5"/><path fill="#310E31" d="M52.004 69.504c-.28 0-.5-.22-.5-.5v-18c0-.28.22-.5.5-.5s.5.22.5.5v18c0 .28-.22.5-.5.5m16 24.09c-.28 0-.5-.22-.5-.5v-19.09c0-.28.22-.5.5-.5s.5.22.5.5v19.09c0 .28-.22.5-.5.5m-32 0c-.28 0-.5-.22-.5-.5v-19.09c0-.28.22-.5.5-.5s.5.22.5.5v19.09c0 .28-.22.5-.5.5"/><path fill="#310E31" d="M52.004 66.004a2 2 0 1 1-.001 4.001 2 2 0 0 1 .001-4.001"/><path fill="#FFC626" d="M42.724 33.054c-2.56-4.43-8.51-5.78-13.29-3.02-4.78 2.76-6.59 8.59-4.03 13.02 1.4 2.42 8.63 8.86 11.29 9.46 3.63.83 7.47-1.39 8.57-4.95.82-2.61-1.14-12.09-2.54-14.51"/><path fill="#FCE170" d="M44.004 45.364c-1.41 3.03-5.24 5.25-8.57 4.95-1.8-.16-5.63-2.68-7.93-4.73 2.76 2.84 7.23 6.48 9.2 6.93 3.63.83 7.47-1.39 8.57-4.95.6-1.93-.32-7.62-1.4-11.43.62 3.01.89 7.58.13 9.23"/><path fill="#FCE580" d="M28.932 29.165c4.147-2.395 8.963-1.815 10.758 1.294 1.795 3.11-.11 7.57-4.258 9.964-4.146 2.394-8.963 1.815-10.758-1.294s.112-7.57 4.258-9.964"/><path fill="#310E31" d="M51.934 69.504c-.17 0-.34-.09-.43-.25l-9-15.59a.493.493 0 0 1 .18-.68c.24-.14.54-.06.68.18l9 15.59c.14.24.06.54-.18.68a.456.456 0 0 1-.25.07m-17.23-39.9c-1.6 0-3.25.42-4.77 1.3-2.09 1.21-3.63 3.1-4.31 5.31-.68 2.19-.45 4.44.65 6.34 1.35 2.34 8.38 8.47 10.65 8.99 3.13.71 6.45-1.2 7.4-4.27.69-2.23-1.11-11.37-2.46-13.72-1.48-2.55-4.23-3.95-7.16-3.95m3.52 24.08c-.58 0-1.17-.06-1.75-.2-2.99-.68-10.47-7.4-11.94-9.94-1.38-2.39-1.67-5.2-.83-7.93.84-2.7 2.69-4.99 5.22-6.45 5.25-3.03 11.83-1.52 14.66 3.38 1.47 2.54 3.54 12.38 2.64 15.31-1.07 3.48-4.45 5.83-8 5.83"/><path fill="#310E31" d="M45.164 53.284l-3.46 2 .23-3.6z"/><path fill="#310E31" d="M42.384 52.464l-.12 1.92 1.85-1.07-1.73-.85zm-.68 3.32c-.09 0-.18-.03-.26-.08a.503.503 0 0 1-.24-.46l.23-3.6c.01-.17.1-.32.25-.4.14-.08.32-.09.47-.02l3.23 1.6a.5.5 0 0 1 .28.43c.01.18-.09.36-.25.45l-3.46 2c-.08.06-.16.08-.25.08z"/><path fill="#FFFBD4" d="M30.433 31.765c1.435-.83 2.934-.918 3.348-.201.414.717-.413 1.97-1.848 2.799-1.435.828-2.934.918-3.348.2-.414-.716.413-1.97 1.848-2.798m2.001 3.465c.48-.275.978-.305 1.116-.066.138.239-.137.657-.616.932-.478.277-.978.307-1.116.068-.138-.24.138-.657.616-.934"/><path fill="#FDD457" d="M78.534 43.054c2.56-4.43.75-10.26-4.03-13.02s-10.73-1.41-13.29 3.02c-1.4 2.42-3.35 11.91-2.55 14.51 1.1 3.56 4.94 5.78 8.57 4.95 2.67-.6 9.9-7.04 11.3-9.46"/><path fill="#310E31" d="M52.004 69.504c-.08 0-.17-.02-.25-.07a.493.493 0 0 1-.18-.68l9-15.59c.14-.24.44-.32.68-.18.24.14.32.44.18.68l-9 15.59c-.09.16-.26.25-.43.25"/><path fill="#EFBC4D" d="M79.695 38.724c.01-3.39-4.681-4.35-6.12-1.29-.32.69-.692 1.4-1.102 2.11-.648 1.12-2.148 3.33-3.719 5.51-2.11 2.92-6.65 2.79-8.36-.38l-.03-.06c-.82-1.55-.76-5.75-.29-8.49-1.08 3.81-2 9.5-1.4 11.43.55 1.78 1.79 3.22 3.34 4.12.97.56 2.06.91 3.19.99a6.94 6.94 0 0 0 2.04-.16c2.66-.6 9.9-7.05 11.29-9.46a8.603 8.603 0 0 0 1.16-4.32"/><path fill="#310E31" d="M69.234 29.604c-2.93 0-5.68 1.4-7.15 3.95-1.35 2.34-3.15 11.49-2.46 13.72.95 3.07 4.27 4.98 7.4 4.27 2.28-.52 9.3-6.65 10.65-8.99 2.27-3.95.63-9.17-3.67-11.65a9.523 9.523 0 0 0-4.77-1.3zm-3.52 24.08c-3.55 0-6.93-2.35-8-5.82-.91-2.93 1.17-12.77 2.64-15.31 2.83-4.9 9.4-6.42 14.66-3.38 5.25 3.03 7.23 9.49 4.4 14.38-1.47 2.54-8.95 9.26-11.94 9.94-.59.13-1.18.19-1.76.19z"/><path fill="#FDD457" d="M70.004 49.744c-.15 0-.3-.07-.4-.2a.498.498 0 0 1 .1-.7c2.91-2.16 6.29-5.4 7.1-6.79.14-.24.44-.32.68-.18.24.14.32.44.18.68-.97 1.68-4.66 5.08-7.37 7.1-.08.06-.19.09-.29.09"/><path fill="#310E31" d="M62.234 55.284l-3.46-2 3.23-1.6z"/><path fill="#310E31" d="M59.834 53.313l1.85 1.07-.12-1.92-1.73.85zm2.4 2.471a.45.45 0 0 1-.25-.07l-3.46-2a.487.487 0 0 1-.25-.45.503.503 0 0 1 .28-.43l3.23-1.6a.496.496 0 0 1 .47.02.5.5 0 0 1 .25.4l.23 3.6c.01.18-.08.36-.24.46a.56.56 0 0 1-.26.07z"/><path fill="#F1674C" d="M52.004 51.004l-18.84-18.19c-4.22-4.07-4.22-10.68 0-14.75s11.06-4.07 15.27 0l3.57 3.44 3.56-3.44c4.22-4.07 11.06-4.07 15.27 0 4.22 4.07 4.22 10.68 0 14.75l-18.83 18.19z"/><path fill="#EE4827" d="M43.594 32.554c-1.38-2.39-3.67-4.05-6.46-4.68-2.22-.5-4.54-.29-6.68.57.2.63.45 1.25.78 1.84 1.12-.44 2.29-.68 3.46-.68.67 0 1.34.07 1.99.22 2.24.51 4.07 1.83 5.17 3.73.93 1.61 2.07 6.45 2.47 10.04l2.12 2.05c-.05-4.08-1.65-11.02-2.85-13.09"/><path fill="#F48873" d="M32.289 19.133c3.148-4.156 8.602-5.327 12.18-2.615 3.58 2.712 3.929 8.279.78 12.434-3.147 4.156-8.601 5.327-12.18 2.615-3.58-2.711-3.928-8.278-.78-12.434"/><path fill="#F2765D" d="M31.664 30.134a9.35 9.35 0 0 1 3.04-.53c.67 0 1.34.07 1.99.22 1.71.39 3.18 1.26 4.27 2.49.61-.26 1.21-.59 1.78-.98-1.39-1.73-3.33-2.94-5.61-3.46-2.15-.49-4.38-.31-6.46.48.25.64.58 1.23.99 1.78"/><path fill="#EE4827" d="M71.114 18.334c-.22-.23-.45-.45-.69-.66-4.21-3.66-10.65.17-9.63 5.65.12.63.19 1.21.2 1.67.05 2.81-.38 5.66-1.29 7.81l-7.7 18.2 18.59-17.96c4.1-3.96 4.48-10.6.52-14.71"/><path fill="#CB2A27" d="M62.084 33.554c1.1-1.9 2.93-3.22 5.17-3.73.66-.15 1.32-.22 1.99-.22 1.16 0 2.32.23 3.42.67.31-.6.56-1.22.76-1.85-2.12-.84-4.42-1.04-6.61-.54-2.79.63-5.08 2.29-6.46 4.68-1.21 2.09-2.82 9.09-2.85 13.15l2.11-2.04c.38-3.6 1.53-8.5 2.47-10.12"/><path fill="#EE4827" d="M52.004 22.464l-1.37.71c-1.88.98-4.19.05-4.87-1.95l-1.99-5.82 8.23 7.06z"/><path fill="#F1674C" d="M44.464 16.514c-.13-.1-.27-.18-.4-.27l1.7 4.98c.29.86.89 1.5 1.62 1.9.1-2.6-.88-5.07-2.92-6.61"/><path fill="#F7A493" d="M55.78 21.16c.977-1.29 2.55-1.742 3.515-1.012.963.73.953 2.368-.025 3.658-.976 1.29-2.55 1.744-3.514 1.013-.964-.73-.954-2.368.023-3.658m4.205-3.211c.347-.459.907-.619 1.25-.359.343.26.341.842-.007 1.3-.346.458-.905.618-1.248.358-.344-.26-.341-.842.005-1.3"/><path fill="#F8B6A9" d="M39.554 17.95c.347-.458.906-.618 1.25-.358.343.26.34.842-.007 1.3-.347.458-.906.618-1.249.358-.344-.26-.34-.842.006-1.3m-4.491 3.285c1.054-1.39 2.754-1.878 3.797-1.088 1.043.791 1.035 2.56-.019 3.95-1.054 1.391-2.754 1.878-3.798 1.088-1.043-.79-1.034-2.559.02-3.95"/><path fill="#310E31" d="M40.804 16.004c-2.51 0-5.03.92-6.94 2.77-1.84 1.78-2.86 4.15-2.86 6.66s1.02 4.88 2.86 6.66l18.14 17.52 18.14-17.52c1.84-1.78 2.86-4.14 2.86-6.66 0-2.51-1.02-4.88-2.86-6.66-3.83-3.7-10.06-3.7-13.88 0l-3.56 3.44c-.39.37-1 .37-1.39 0l-3.56-3.44c-1.92-1.84-4.44-2.77-6.95-2.77m11.2 36c-.25 0-.5-.09-.69-.28l-18.84-18.19c-2.24-2.16-3.47-5.04-3.47-8.1 0-3.06 1.23-5.94 3.47-8.1 4.59-4.44 12.07-4.44 16.66 0l2.87 2.78 2.87-2.77c4.59-4.44 12.07-4.44 16.66 0 2.24 2.16 3.47 5.04 3.47 8.1 0 3.06-1.23 5.93-3.47 8.09l-18.84 18.19a.972.972 0 0 1-.69.28"/><path fill="#F5917E" d="M40.804 17.004c-2.36 0-4.58.89-6.25 2.49-1.65 1.59-2.55 3.7-2.55 5.94s.91 4.35 2.55 5.94l17.45 16.85 17.45-16.85c1.65-1.59 2.55-3.7 2.55-5.94s-.91-4.35-2.55-5.94a8.989 8.989 0 0 0-6.25-2.49c-2.36 0-4.58.89-6.25 2.49l-3.49 3.37c-.82.79-2.11.79-2.93 0l-3.49-3.37c-1.66-1.6-3.88-2.49-6.24-2.49zm11.2 32.61l-18.14-17.52c-1.85-1.78-2.86-4.15-2.86-6.66s1.01-4.88 2.86-6.66c1.85-1.78 4.32-2.77 6.94-2.77s5.09.99 6.94 2.77l3.49 3.37c.43.42 1.11.42 1.54 0l3.49-3.37c1.85-1.78 4.32-2.77 6.94-2.77s5.09.99 6.94 2.77c1.84 1.78 2.86 4.14 2.86 6.66 0 2.52-1.01 4.88-2.86 6.66l-18.14 17.52z"/><path fill="#F1674C" d="M44.184 16.584l.43 1.25c.89.41 1.72.96 2.44 1.66l3.49 3.37c.09.08.18.15.27.22l1.19-.62-.01-.01c-.27 0-.55-.1-.76-.31l-3.18-3.08-1.35-1.16c-.77-.55-1.62-1-2.52-1.32"/><path fill="#F8B6A9" d="M33.864 18.774c-1.85 1.79-2.86 4.15-2.86 6.66s1.01 4.86 2.84 6.64c.72.41 1.49.68 2.29.82l-1.58-1.53c-1.65-1.59-2.55-3.7-2.55-5.94s.91-4.35 2.55-5.94a9.024 9.024 0 0 1 6.25-2.48c2.14 0 4.16.73 5.76 2.07-.41-.83-.98-1.58-1.69-2.21-1.26-.56-2.64-.86-4.07-.86-2.62 0-5.09.99-6.94 2.77"/><path fill="#F1674C" d="M73.004 25.434c0-2.51-1.01-4.88-2.86-6.66-1.24-1.2-2.76-2.02-4.41-2.45-.7.12-1.37.35-1.99.7 2.16.13 4.17.98 5.7 2.47 1.65 1.59 2.55 3.7 2.55 5.94s-.91 4.35-2.55 5.94l-15.45 14.92-1 2.35 17.15-16.56c1.85-1.77 2.86-4.14 2.86-6.65"/><path fill="#310E31" d="M54.004 54.004h-4l2-3z"/><path fill="#310E31" d="M50.934 53.504h2.13l-1.06-1.6-1.07 1.6zm3.07 1h-4c-.18 0-.35-.1-.44-.26a.492.492 0 0 1 .02-.51l2-3c.19-.28.65-.28.83 0l2 3c.1.15.11.35.02.51a.483.483 0 0 1-.43.26z"/><path fill="#F5917E" d="M44.614 17.844c.69.32 1.34.72 1.93 1.21-.41-.83-.97-1.57-1.68-2.2-.22-.1-.45-.18-.67-.27l.42 1.26z"/><path fill="#FCDAD4" d="M34.214 19.634c-.13 0-.26-.05-.36-.15-.19-.2-.19-.52.01-.71a9.81 9.81 0 0 1 4.5-2.48c.27-.07.54.1.6.37.07.27-.1.54-.37.6a8.897 8.897 0 0 0-4.05 2.23c-.08.1-.21.14-.33.14m-2.71 6.3c-.28 0-.5-.22-.5-.5 0-1.48.34-2.89 1.02-4.2a.49.49 0 0 1 .67-.21c.25.13.34.43.21.67-.6 1.16-.91 2.42-.91 3.74.01.28-.21.5-.49.5"/><path fill="#F7A493" d="M61.564 40.184c-.13 0-.26-.05-.36-.15a.503.503 0 0 1 .01-.71l3.67-3.55a.503.503 0 0 1 .701.72l-3.67 3.55a.52.52 0 0 1-.351.14m6.28-6.06c-.13 0-.26-.05-.36-.15a.503.503 0 0 1 .01-.71l1.96-1.89c.2-.19.52-.19.71.01.19.2.19.52-.01.71l-1.96 1.89a.542.542 0 0 1-.35.14"/><path d="M70.764 29.744c.35.06.69.13 1.04.23.33-.59.61-1.2.8-1.84-.32-.1-.64-.19-.97-.26a8.82 8.82 0 0 1-.87 1.87m-13.2 14.5l2.25-2.17c.08-.55.17-1.1.28-1.66l-2.37 2.29c-.07.53-.12 1.04-.16 1.54" fill="#DC3726"/><path fill="#F48873" d="M32.204 29.944c.34-.1.69-.16 1.04-.22-.37-.59-.66-1.22-.87-1.87-.33.07-.65.15-.97.25.2.64.46 1.26.8 1.84"/><path fill="#F1674C" d="M46.204 42.624l-2.38-2.3c.11.56.2 1.12.28 1.66l2.26 2.18c-.04-.49-.09-1.01-.16-1.54"/><path fill="#FFF" d="M17.194 37.694c-1.11 0-2.1.48-2.79 1.24.9.51 1.52 1.46 1.52 2.57 0 .14-.02.28-.04.42a2.94 2.94 0 0 0-2.21-2.44c-.06-.02-.12-.04-.19-.05-.17-.03-.34-.05-.52-.05a2.96 2.96 0 1 0 0 5.92h4.23c2.1 0 3.81-1.7 3.81-3.81 0-2.09-1.7-3.8-3.81-3.8m70.31 14.31c-1.31 0-2.48.57-3.3 1.46 1.07.6 1.8 1.73 1.8 3.04 0 .17-.03.34-.05.5a3.487 3.487 0 0 0-2.61-2.89c-.07-.02-.14-.04-.22-.06-.2-.04-.4-.06-.62-.06-1.93 0-3.5 1.57-3.5 3.5s1.57 3.5 3.5 3.5h5a4.5 4.5 0 0 0 4.5-4.5c0-2.47-2.02-4.49-4.5-4.49"/></g></svg>