<svg xmlns="http://www.w3.org/2000/svg" width="95" height="26" viewBox="0 0 95 26"><path fill="#A0A0A0" fill-rule="evenodd" d="M7.497.406a8.726 8.726 0 0 1 5.022 1.744L13.523.539h1.205l.2 8.194h-.8C12.79 4.643 11.18 1.548 6.83 1.548a3.574 3.574 0 0 0-3.348 3.695c0 2.216.938 3.426 2.946 4.635 1.607.94 3.281 1.411 4.754 2.15 2.678 1.343 4.686 2.82 4.686 6.515C15.87 22.91 12.59 26 8.166 26c-2.812-.202-4.753-1.076-5.758-1.95L1.34 25.733H.201L0 17.334h.804c1.406 3.829 3.481 7.457 7.63 7.457 2.946 0 4.42-1.817 4.42-4.502a4.869 4.869 0 0 0-3.282-4.77c-1.875-.805-3.146-1.275-5.021-2.149A6.422 6.422 0 0 1 .6 7.056c0-3.83 2.945-6.65 6.896-6.65zM23.97 8.602c3.348 0 5.022 1.948 5.022 4.165 0 1.209-.67 2.015-1.808 2.015a1.84 1.84 0 0 1-1.94-1.737l-.002-.08c0-1.478.402-1.545.402-2.216-.2-1.075-.67-1.276-1.744-1.276-1.942 0-3.75 1.88-3.75 7.321 0 4.366 1.54 7.39 4.353 7.39 2.21 0 3.548-1.142 4.553-3.225l.74.543c-1.205 2.35-3.482 4.3-6.026 4.3-4.754 0-7.098-3.695-7.098-8.666 0-4.436 2.812-8.534 7.298-8.534zm51.288 0c3.348 0 5.021 1.948 5.021 4.165 0 1.209-.669 2.015-1.807 2.015a1.84 1.84 0 0 1-1.943-1.817c0-1.478.403-1.545.403-2.216-.201-1.075-.67-1.276-1.745-1.276-1.942 0-3.749 1.88-3.749 7.321 0 4.366 1.54 7.39 4.352 7.39 2.21 0 3.549-1.142 4.553-3.225l.737.537c-1.205 2.351-3.482 4.3-6.026 4.3-4.753 0-7.098-3.695-7.098-8.666.003-4.43 2.816-8.528 7.302-8.528zm-30.465.003c4.486 0 6.16 3.224 6.16 6.919v.336h-9.575v.403c0 4.635 1.34 7.926 4.687 7.926 2.41 0 3.281-1.008 4.486-3.225l.67.404c-1.139 2.553-3.349 4.366-6.027 4.366-4.955.067-7.298-3.896-7.298-8.665 0-4.3 2.544-8.464 6.897-8.464zm43.253 0c4.486 0 6.16 3.224 6.16 6.919v.336H84.63v.403c0 4.635 1.34 7.926 4.687 7.926 2.41 0 3.281-1.008 4.486-3.225l.67.404c-1.139 2.553-3.349 4.366-6.027 4.366-5.021.067-7.298-3.896-7.298-8.665 0-4.3 2.544-8.464 6.897-8.464zm-26.112-.07c2.947 0 4.352 2.284 4.352 5.71v8.33c-.08.65.236 1.285.805 1.611.465.213.963.35 1.472.404v.74h-7.902v-.74a8.301 8.301 0 0 0 1.474-.27c.602-.2.872-.805.872-1.611v-8.532c0-2.485-1.205-3.829-2.543-3.829a4.082 4.082 0 0 0-3.817 2.351v9.81a1.626 1.626 0 0 0 .803 1.613c.446.266.955.404 1.473.403v.739h-7.835v-.672l.066-.003c.498-.051.99-.14 1.473-.269.602-.2.873-.806.873-1.612V12.363a2.633 2.633 0 0 0-.873-1.88 3.826 3.826 0 0 0-1.607-.605v-.672l5.424-.403.268.269v2.418h.067c1.272-1.343 2.477-2.955 5.155-2.955zm-26.38.265l.2.269v13.435a1.924 1.924 0 0 0 .872 1.68c.452.249.957.387 1.473.403v.739h-7.835v-.74l-.067.003c.497-.051.99-.14 1.473-.269.608-.293.959-.943.872-1.612V12.363a2.479 2.479 0 0 0-.872-1.817 4.784 4.784 0 0 0-1.942-.671v-.672l5.825-.403zm9.24.675c-1.942 0-3.348 2.216-3.416 5.642l6.16-.134c0-2.616-.468-5.508-2.744-5.508zm43.253 0c-1.942 0-3.348 2.216-3.416 5.642l6.16-.134c0-2.616-.468-5.508-2.744-5.508zM36.086 1.982c.003.057.004.114.002.17a2.264 2.264 0 0 1-2.174 2.351h-.035a2.175 2.175 0 0 1-2.142-2.208v-.008A2.235 2.235 0 0 1 33.879.003a2.096 2.096 0 0 1 2.207 1.979z"/></svg>