<svg xmlns="http://www.w3.org/2000/svg" xmlns:xlink="http://www.w3.org/1999/xlink" width="50" height="38" viewBox="0 0 50 38"><defs><path id="a" d="M0 38h50V0H0z"/></defs><g fill="none" fill-rule="evenodd"><path fill="#FFF" d="M48 30c0 .6-.4 1-1 1h-1.1c-.5-2.8-2.9-5-5.9-5-3 0-5.4 2.2-5.9 5H33V21h10.7l3.3 2c.6.4 1 1 1 1.7V30zM19 4a7 7 0 1 1 0 14 7 7 0 0 1 0-14"/><path fill="#DCDBE9" d="M31 31H14l-3-4h20z"/><path fill="#DCDBE9" d="M9 27a5 5 0 1 1 0 10 5 5 0 0 1 0-10m31 1a4 4 0 1 1 0 8 4 4 0 0 1 0-8"/><path fill="#80CAF0" d="M44 20H34v-9h4.8c1.3 0 2.4.8 2.8 2.1L44 20z"/><path fill="#282366" d="M9 31a1 1 0 1 1 0 2 1 1 0 0 1 0-2M3 4a1 1 0 1 1 0 2 1 1 0 0 1 0-2M1 22a1 1 0 1 1 0 2 1 1 0 0 1 0-2m39 9a1 1 0 1 1 0 2 1 1 0 1 1 0-2M15 6H6c-.6 0-1-.4-1-1s.4-1 1-1h9c.6 0 1 .4 1 1s-.4 1-1 1m24 15c-.2 0-.3 0-.4-.1-.5-.2-.7-.8-.4-1.3l1-2c.2-.5.8-.7 1.3-.4.5.3.7.8.4 1.3l-1 2c-.2.3-.5.5-.9.5"/><path fill="#282366" d="M48 30c0 .6-.4 1-1 1h-1.1c-.5-2.8-2.9-5-5.9-5-3 0-5.4 2.2-5.9 5H33V21h10.7l3.3 2c.6.4 1 1 1 1.7V30zm-8 6c-2.2 0-4-1.8-4-4s1.8-4 4-4 4 1.8 4 4-1.8 4-4 4zm-1.2-24c.9 0 1.6.5 1.9 1.4l1.9 5.6H33v-7h5.8zM31 31H14.9c-.3-1.7-1.2-3.1-2.6-4H31v4zm-18 1c0 2.2-1.8 4-4 4s-4-1.8-4-4 1.8-4 4-4 4 1.8 4 4zm35.1-10.7l-3.2-1.9-2.2-6.6c-.5-1.6-2.1-2.7-3.8-2.7H33V7c0-1.7-1.3-3-3-3h-2c-.6 0-1 .4-1 1s.4 1 1 1h2c.6 0 1 .4 1 1v19H9c-3 0-5.4 2.2-5.9 5H1c-.6 0-1 .4-1 1s.4 1 1 1h2.1c.5 2.8 2.9 5 5.9 5 3 0 5.4-2.2 5.9-5h19.2c.5 2.8 2.9 5 5.9 5 3 0 5.4-2.2 5.9-5H47c1.7 0 3-1.3 3-3v-5.3c0-1.4-.7-2.7-1.9-3.4zM10 20H1c-.6 0-1-.4-1-1s.4-1 1-1h9c.6 0 1 .4 1 1s-.4 1-1 1"/><path fill="#282366" d="M17 24H5c-.6 0-1-.4-1-1s.4-1 1-1h12c.6 0 1 .4 1 1s-.4 1-1 1"/><path fill="#80CAF0" d="M19 6.1v5l3.5 3.5c.9-.9 1.5-2.2 1.5-3.5 0-2.7-2.2-5-5-5"/><path fill="#282366" d="M19 5c-3.3 0-6 2.7-6 6s2.7 6 6 6 6-2.7 6-6-2.7-6-6-6m0 14c-4.4 0-8-3.6-8-8s3.6-8 8-8 8 3.6 8 8-3.6 8-8 8"/><path fill="#282366" d="M22 15c-.3 0-.5-.1-.7-.3l-3-3c-.4-.4-.4-1 0-1.4.4-.4 1-.4 1.4 0l3 3c.4.4.4 1 0 1.4-.2.2-.4.3-.7.3M19 5c-.6 0-1-.4-1-1V2c0-.6.4-1 1-1s1 .4 1 1v2c0 .6-.4 1-1 1"/><path fill="#282366" d="M21 2h-4c-.6 0-1-.4-1-1s.4-1 1-1h4c.6 0 1 .4 1 1s-.4 1-1 1"/><mask id="b" fill="#fff"><use xlink:href="#a"/></mask><path fill="#DCDBE9" d="M33 31h1V21h-1z" mask="url(#b)"/><path fill="#FFF" d="M33 19h1v-7h-1z" mask="url(#b)"/></g></svg>