<svg xmlns="http://www.w3.org/2000/svg" xmlns:xlink="http://www.w3.org/1999/xlink" width="104" height="104" viewBox="0 0 104 104"><defs><path id="a" d="M0 .992h102.008V103H0z"/></defs><g fill="none" fill-rule="evenodd"><g transform="translate(1 .008)"><mask id="b" fill="#fff"><use xlink:href="#a"/></mask><path fill="#D4EDFA" d="M97.014 54.156l3.98 3.32c1.63 1.36 1.22 3.97-.75 4.77l-4.81 1.93a2.8 2.8 0 0 0-1.33 4.1l2.76 4.39c1.13 1.8-.07 4.16-2.19 4.3l-5.17.34a2.813 2.813 0 0 0-2.54 3.49l1.27 5.02c.52 2.06-1.35 3.93-3.41 3.41l-5.02-1.27c-1.7-.43-3.37.79-3.49 2.54l-.34 5.17c-.14 2.12-2.5 3.32-4.3 2.19l-4.39-2.76a2.813 2.813 0 0 0-4.1 1.33l-1.93 4.81c-.79 1.97-3.4 2.39-4.77.75l-3.32-3.98a2.81 2.81 0 0 0-4.32 0l-3.32 3.98c-1.36 1.63-3.97 1.22-4.77-.75l-1.93-4.81a2.8 2.8 0 0 0-4.1-1.33l-4.39 2.76c-1.8 1.13-4.16-.07-4.3-2.19l-.34-5.17a2.812 2.812 0 0 0-3.49-2.54l-5.02 1.27c-2.06.52-3.93-1.35-3.41-3.41l1.27-5.02a2.812 2.812 0 0 0-2.54-3.49l-5.17-.34c-2.12-.14-3.32-2.5-2.19-4.3l2.76-4.39c.93-1.48.29-3.45-1.33-4.1l-4.81-1.93c-1.97-.79-2.39-3.4-.75-4.77l3.98-3.32a2.81 2.81 0 0 0 0-4.32l-3.98-3.32c-1.63-1.36-1.22-3.98.75-4.77l4.81-1.93a2.8 2.8 0 0 0 1.33-4.1l-2.76-4.39c-1.13-1.8.07-4.16 2.19-4.3l5.17-.34a2.812 2.812 0 0 0 2.54-3.49l-1.27-5.02c-.52-2.06 1.35-3.93 3.41-3.41l5.02 1.27c1.7.43 3.37-.79 3.49-2.54l.34-5.17c.14-2.12 2.5-3.32 4.3-2.19l4.39 2.76c1.48.93 3.45.29 4.1-1.33l1.93-4.81c.79-1.97 3.4-2.39 4.77-.75l3.32 3.98a2.81 2.81 0 0 0 4.32 0l3.32-3.98c1.36-1.63 3.97-1.22 4.77.75l1.93 4.81a2.8 2.8 0 0 0 4.1 1.33l4.39-2.76c1.8-1.13 4.16.07 4.3 2.19l.34 5.17a2.812 2.812 0 0 0 3.49 2.54l5.02-1.27c2.06-.52 3.93 1.35 3.41 3.41l-1.27 5.02c-.43 1.7.79 3.37 2.54 3.49l5.17.34c2.12.14 3.32 2.5 2.19 4.3l-2.76 4.39a2.812 2.812 0 0 0 1.33 4.1l4.81 1.93c1.97.79 2.39 3.4.75 4.77l-3.98 3.32a2.81 2.81 0 0 0 0 4.32" mask="url(#b)"/></g><path fill="#FFE178" d="M43.994 25.184a9.94 9.94 0 0 0-3.79-8.03c-3.59-2.86-8.84-2.85-12.43.02a9.962 9.962 0 0 0-3.76 8.05c.03 1.14-.65 2.14-1.66 2.66a8.012 8.012 0 0 0-3.82 9.99c.4 1.03.25 2.17-.44 3.03-.68.85-1.09 1.92-1.09 3.1 0 1.28.49 2.45 1.29 3.32.55.61.86 1.45.74 2.27a3 3 0 0 0 .85 2.53c.6.6 1.38.88 2.16.87.82-.01 1.54.44 2.04 1.08l.03.03c.79 1 1.09 2.24.92 3.5-.04.28-.04.56.01.86.19 1.24 1.19 2.27 2.42 2.49 1.89.33 3.54-1.12 3.54-2.95 0-.96-.46-1.81-1.17-2.36 2.23-.88 3.68-3.3 3-5.96-.29-1.14-1.08-2.06-2.06-2.7-1.81-1.18.49-1.4-.77-.98.35-.69.57-1.45.57-2.28 0-.36-.04-.71-.12-1.05 4-.44 3.54-3.55 3.54-7.67 2.51 0 5.01-.94 6.95-2.82.67.63 1.63.97 2.67.76a3 3 0 0 0 1.56-4.99c-.71-.76-1.2-1.72-1.18-2.77"/><path fill="#FBB653" d="M42.194 19.274c-.71-1.02-2.36-.45-2.24.79.27 2.86-.69 5.82-2.88 8.01-1.31 1.31-2.56 2.2-3.97 2.65-1.86.59-3.96-.05-5.15-1.6-.18-.23-.3-.45-.32-.62-.07-.51-.75-.68-1.03-.25-.48.74-.82 1.93-.88 2.62-.31 3.45-.08 10.09.01 15.74-.25.12-.53.21-.83.26-.63.1-1.24 0-1.68-.24-.27-.15-.59.12-.48.41.19.49.55.91 1.08 1.18.01 0 .01.01.02.01 1.14.56 1.93 1.62 1.91 2.89-.03 2.55-.16 4.46-.49 5.07-.57 1.02.36 3.13.74 3.81 1.14 2.03 2.04 2.97 3 0 1.45-4.45 2.09-16.96.64-21.41-.42-1.31-.69-3.12-.98-4.75.15.04.3.09.45.11.17.03.34.03.51.03 1.85.9 4.03 1.26 6.31.83 4.05-.76 7.26-4.07 7.93-8.13.45-2.76-.23-5.37-1.67-7.41"/><path fill="#FBB653" d="M25.954 32.514c-.22-.22-.59-.03-.57.27.04.51-.11 1.1-.46 1.64-.35.54-.83.92-1.31 1.08-.29.1-.3.52-.02.63.49.19 1.05.21 1.6-.01a2.204 2.204 0 0 0 .76-3.61m20.05-2.51c0 1.66-1.34 3-3 3s-3-1.34-3-3 1.34-4 3-4 3 2.34 3 4m-19.57 20.11c-.2-.23-.59-.06-.58.24.02.51-.16 1.09-.54 1.61s-.87.88-1.36 1.02c-.29.09-.33.5-.05.62.48.21 1.54 2.58 2.09 2.4.88-.29 1-3.47 1-4.41.01-.58-.21-1.1-.56-1.48"/><path fill="#310E31" d="M22.074 52.494c.89 0 1.77.46 2.4 1.28.88 1.1 1.24 2.48 1.05 3.91-.03.23-.03.48.01.72.16 1.02 1 1.89 2.02 2.07.76.13 1.49-.06 2.06-.55a2.48 2.48 0 0 0-.08-3.87.523.523 0 0 1-.19-.47c.03-.18.14-.33.31-.39 1.84-.73 3.35-2.8 2.7-5.37-.24-.93-.89-1.79-1.85-2.41-.62-.4-.94-.8-.96-1.2a.5.5 0 0 1 .01-.43c.34-.66.52-1.35.52-2.05 0-.31-.04-.63-.1-.95-.03-.14 0-.28.08-.4s.21-.19.35-.21c3.03-.33 3.15-2.19 3.11-6.01 0-.38-.01-.76-.01-1.16 0-.28.22-.5.5-.5 2.47 0 4.82-.95 6.6-2.68.19-.19.5-.19.69 0 .6.57 1.42.8 2.23.63.97-.2 1.77-1.02 1.94-2 .14-.79-.1-1.58-.64-2.15-.89-.94-1.35-2.02-1.33-3.12.06-2.98-1.26-5.76-3.6-7.63-3.42-2.73-8.39-2.72-11.8.02-2.34 1.88-3.65 4.67-3.58 7.65.03 1.3-.71 2.49-1.94 3.12a7.484 7.484 0 0 0-3.58 9.36c.47 1.22.28 2.54-.51 3.52-.65.8-.99 1.76-.99 2.79 0 1.1.41 2.17 1.16 2.99.67.74 1 1.74.87 2.67-.11.78.15 1.55.71 2.11a2.5 2.5 0 0 0 1.79.72c.02-.01.04-.01.05-.01m5.92 9.01c-.21 0-.41-.02-.62-.05-1.44-.25-2.61-1.45-2.83-2.9-.05-.33-.06-.67-.01-1 .15-1.15-.14-2.26-.82-3.12-.48-.61-1.03-.94-1.67-.93-.95 0-1.85-.34-2.52-1.02a3.466 3.466 0 0 1-.99-2.95c.09-.64-.14-1.34-.62-1.86a5.505 5.505 0 0 1-1.41-3.67c0-1.25.42-2.44 1.21-3.42.57-.7.7-1.65.36-2.54-.38-.97-.57-2-.57-3.05 0-3.2 1.77-6.09 4.62-7.56.88-.45 1.41-1.3 1.39-2.21-.08-3.3 1.36-6.38 3.95-8.45 3.78-3.03 9.27-3.04 13.05-.02 2.59 2.06 4.04 5.14 3.98 8.43-.02 1.05.56 1.9 1.05 2.42.76.8 1.09 1.9.9 3.01a3.477 3.477 0 0 1-2.72 2.81c-.98.2-1.96-.01-2.75-.58-1.8 1.6-4.07 2.53-6.47 2.64 0 .22 0 .44.01.66.04 3.37.07 6.3-3.47 6.94.03.21.04.42.04.63 0 .59-.1 1.18-.3 1.76.07.08.12.18.13.28.02.23-.09.38-.24.49.07.07.2.18.39.31 1.17.76 1.97 1.83 2.27 3 .64 2.51-.45 5.01-2.62 6.22.52.62.8 1.4.8 2.22 0 1.04-.46 2.01-1.25 2.68-.64.54-1.44.83-2.27.83"/><path fill="#58656F" d="M59.914 60.114a3.05 3.05 0 1 1 .002 6.099 3.05 3.05 0 0 1-.002-6.099"/><path fill="#FFF" d="M58.934 63.074c0-.59.38-1.09 1.08-1.09.27 0 .48.08.7.28.08.08.09.21.01.3a.21.21 0 0 1-.28-.01c-.12-.13-.25-.17-.43-.17-.47 0-.7.33-.7.7 0 .38.22.73.69.73a.75.75 0 0 0 .48-.19c.09-.07.23-.04.28.04.05.07.07.18-.04.29-.21.2-.47.24-.72.23-.74-.01-1.07-.52-1.07-1.11"/><path fill="#ADBBC3" d="M40.934 59.594c-.28 0-.5-.22-.5-.5v-2.04c0-.28.22-.5.5-.5s.5.22.5.5v2.04c0 .28-.23.5-.5.5m1.36 0c-.28 0-.5-.22-.5-.5v-2.04c0-.28.22-.5.5-.5s.5.22.5.5v2.04c0 .28-.23.5-.5.5"/><path fill="#58656F" d="M50.754 65.884a3.05 3.05 0 1 1-.002 6.1 3.05 3.05 0 0 1 .002-6.1"/><path fill="#FFF" d="M49.774 68.844c0-.59.38-1.09 1.08-1.09.27 0 .48.08.7.28.08.08.09.21.01.3a.212.212 0 0 1-.28-.01c-.12-.13-.25-.17-.43-.17-.47 0-.7.33-.7.7 0 .38.22.73.69.73.17 0 .34-.07.48-.19.1-.07.23-.04.28.04.05.07.07.18-.04.29-.21.2-.47.24-.72.23-.74-.02-1.07-.52-1.07-1.11"/><path fill="#4C9BD5" d="M86.394 41.114a3.05 3.05 0 1 1 0 6.101 3.05 3.05 0 0 1 0-6.101"/><path fill="#FFF" d="M85.454 43.244c0-.11.03-.22.18-.22.11 0 .13.03.22.11l1 1.27.01-1.18c0-.1.09-.21.19-.21.11 0 .21.11.21.21l-.01 1.72c0 .13-.08.19-.16.21-.11 0-.16-.03-.25-.11l-1-1.29-.01 1.18c0 .13-.08.21-.19.21a.205.205 0 0 1-.21-.21l.02-1.69z"/><path fill="#F0584B" d="M50.754 76.064a2.71 2.71 0 1 1 0 5.42 2.71 2.71 0 0 1 0-5.42"/><path fill="#F1F1F2" d="M50.704 77.964c-.34 0-.71.24-.72.72 0 .48.37.73.71.73.35 0 .73-.24.73-.72s-.37-.73-.72-.73m.02 1.82c-.56.02-1.15-.36-1.14-1.11 0-.75.59-1.12 1.16-1.11.53.03 1.09.4 1.08 1.13 0 .73-.56 1.1-1.1 1.09"/><path fill="#F0584B" d="M33.114 68.944a2.71 2.71 0 1 1 0 5.42 2.71 2.71 0 0 1 0-5.42"/><path fill="#F1F1F2" d="M33.054 70.844c-.34 0-.71.24-.72.72 0 .48.37.73.71.73.35 0 .73-.24.73-.72.01-.49-.36-.73-.72-.73m.03 1.82c-.57.02-1.15-.36-1.14-1.11 0-.75.59-1.12 1.16-1.11.53.03 1.09.4 1.09 1.13-.02.72-.58 1.09-1.11 1.09"/><path fill="#F0584B" d="M68.754 31.004a2.71 2.71 0 1 1 0 5.42 2.71 2.71 0 0 1 0-5.42"/><path fill="#F1F1F2" d="M68.695 32.914c-.341 0-.721.24-.721.72s.37.73.71.73c.35 0 .73-.24.73-.72.01-.49-.36-.73-.72-.73m.03 1.82c-.56.02-1.15-.36-1.14-1.11 0-.75.59-1.12 1.16-1.11.53.03 1.09.4 1.09 1.13-.02.72-.58 1.09-1.11 1.09"/><path fill="#58656F" d="M41.594 60.154a3.05 3.05 0 1 1 .001 6.099 3.05 3.05 0 0 1-.001-6.099"/><path fill="#FFF" d="M40.614 63.104c0-.59.38-1.09 1.08-1.09.26 0 .48.08.7.28.08.08.09.21.01.3a.21.21 0 0 1-.28-.01c-.12-.13-.25-.17-.43-.17-.47 0-.7.33-.7.7 0 .38.22.73.69.73.17 0 .33-.07.48-.19.09-.07.23-.04.28.04.05.07.07.18-.04.29-.21.2-.47.24-.72.23-.74-.01-1.07-.52-1.07-1.11"/><path fill="#58656F" d="M41.594 49.934a3.05 3.05 0 1 1 .001 6.099 3.05 3.05 0 0 1-.001-6.099"/><path fill="#FFF" d="M40.614 52.894c0-.59.38-1.09 1.08-1.09.27 0 .48.08.7.28.08.08.09.21.01.3a.21.21 0 0 1-.28-.01c-.12-.13-.25-.17-.43-.17-.47 0-.7.33-.7.7 0 .38.22.73.69.73.17 0 .34-.07.48-.19.1-.07.23-.04.28.04.05.07.07.18-.04.29-.21.2-.47.24-.72.23-.74-.01-1.07-.52-1.07-1.11"/><path fill="#58656F" d="M59.914 49.934a3.05 3.05 0 1 1 .002 6.099 3.05 3.05 0 0 1-.002-6.099"/><path fill="#FFF" d="M58.934 52.894c0-.59.38-1.09 1.08-1.09.26 0 .48.08.7.28.08.08.09.21.01.3a.21.21 0 0 1-.28-.01c-.12-.13-.25-.17-.43-.17-.47 0-.7.33-.7.7 0 .38.22.73.69.73.17 0 .33-.07.48-.19.09-.07.23-.04.28.04.05.07.07.18-.04.29-.21.2-.47.24-.72.23-.74-.01-1.07-.52-1.07-1.11"/><path fill="#58656F" d="M50.754 44.174a3.05 3.05 0 1 1 0 6.1 3.05 3.05 0 0 1 0-6.1"/><path fill="#FFF" d="M49.774 47.124c0-.59.38-1.09 1.08-1.09.27 0 .48.08.7.28.08.08.09.21.01.3-.08.07-.21.06-.28-.01-.12-.13-.25-.17-.43-.17-.47 0-.7.33-.7.7 0 .38.22.73.69.73.17 0 .34-.07.48-.19.09-.07.23-.04.28.04.05.07.07.18-.04.29-.21.2-.47.24-.72.23-.74-.01-1.07-.52-1.07-1.11m41.37-4.66a1.7 1.7 0 1 1 0 3.4 1.7 1.7 0 0 1 0-3.4"/><path fill="#7E8C9B" d="M90.514 44.684l.01-1.15c0-.07.05-.13.14-.12.07 0 .12.05.12.13v.44h.66v-.44c0-.07.07-.12.14-.12s.12.05.12.13l-.01 1.15c0 .07-.05.13-.12.12-.07 0-.14-.06-.14-.13v-.44h-.66v.44c0 .07-.05.12-.12.12-.09-.01-.14-.06-.14-.13"/><path fill="#FFF" d="M86.384 37.714a1.7 1.7 0 1 1 0 3.4 1.7 1.7 0 0 1 0-3.4"/><path fill="#7E8C9B" d="M85.754 39.934l.01-1.15c0-.07.05-.12.14-.12.07 0 .12.05.12.13v.44h.66v-.44c0-.07.07-.13.14-.13s.12.05.12.13l-.01 1.15c0 .07-.06.13-.13.12-.07 0-.14-.05-.14-.13v-.44h-.66v.44c0 .07-.05.13-.12.12-.08 0-.14-.05-.13-.12"/><path fill="#FFF" d="M77.554 42.504a1.7 1.7 0 1 1 0 3.4 1.7 1.7 0 0 1 0-3.4"/><path fill="#7E8C9B" d="M76.924 44.714l.01-1.15c0-.07.051-.12.14-.12.07 0 .121.05.121.13v.44h.659v-.44c0-.07.07-.13.14-.12.07 0 .12.05.12.13l-.01 1.15c0 .07-.06.13-.13.13s-.14-.06-.14-.13v-.44h-.66v.44c0 .07-.05.13-.12.12-.069-.01-.13-.07-.13-.14"/><path fill="#FFF" d="M77.554 60.144a1.7 1.7 0 1 1-.001 3.4 1.7 1.7 0 0 1 0-3.4"/><path fill="#7E8C9B" d="M76.924 62.364l.01-1.15c0-.07.051-.13.14-.12.07 0 .121.05.121.13v.44h.659v-.44c0-.07.07-.12.14-.12s.12.05.12.13l-.01 1.15c0 .07-.06.13-.13.12-.07 0-.14-.06-.14-.13v-.44h-.66v.44c0 .07-.05.12-.12.12-.069-.01-.13-.06-.13-.13"/><path fill="#FFF" d="M67.714 69.304a1.701 1.701 0 0 1 0 3.4 1.7 1.7 0 0 1 0-3.4"/><path fill="#7E8C9B" d="M67.084 71.523l.01-1.148c0-.072.05-.122.14-.122.07 0 .12.05.12.13v.441h.66v-.44c0-.07.07-.13.14-.12.07 0 .12.05.12.13l-.01 1.15c0 .07-.05.13-.12.13-.07 0-.14-.06-.14-.13v-.44h-.66v.44c0 .07-.05.13-.12.12-.08-.02-.14-.07-.14-.14"/><path fill="#FFF" d="M33.794 43.524a1.7 1.7 0 1 1 0 3.4 1.7 1.7 0 0 1 0-3.4"/><path fill="#7E8C9B" d="M33.164 45.734l.01-1.15c0-.07.05-.12.14-.12.07 0 .12.05.12.13v.44h.66v-.44c0-.07.07-.13.14-.13s.12.05.12.13l-.01 1.15c0 .07-.05.13-.12.12-.07 0-.14-.05-.14-.13v-.44h-.66v.44c0 .07-.05.12-.12.12-.09.01-.14-.05-.14-.12"/><path fill="#FFF" d="M50.754 36.734a1.7 1.7 0 1 1 0 3.4 1.7 1.7 0 0 1 0-3.4"/><path fill="#7E8C9B" d="M50.124 38.954l.01-1.15c0-.07.05-.13.14-.12.07 0 .12.05.12.13v.44h.66v-.44c0-.07.07-.13.14-.13s.12.05.12.13l-.01 1.15c0 .07-.06.13-.13.12-.07 0-.14-.06-.14-.13v-.45h-.66v.44c0 .07-.05.12-.12.12-.08.01-.13-.04-.13-.11"/><path fill="#FFF" d="M73.144 32.014a1.7 1.7 0 1 1 0 3.4 1.7 1.7 0 0 1 0-3.4"/><path fill="#7E8C9B" d="M72.514 34.234l.01-1.15c0-.07.05-.13.14-.13.07 0 .12.05.12.13v.44h.66v-.44c0-.07.07-.13.14-.12.07 0 .12.05.12.13l-.01 1.15c0 .07-.06.13-.13.13s-.14-.06-.14-.13v-.44h-.66v.44c0 .07-.05.13-.12.12-.08 0-.13-.06-.13-.13"/><path fill="#FFF" d="M55.164 77.094a1.701 1.701 0 0 1 0 3.4 1.7 1.7 0 1 1 0-3.4"/><path fill="#7E8C9B" d="M54.534 79.304l.01-1.15c0-.07.05-.13.14-.12.07 0 .12.05.12.13v.44h.66v-.44c0-.07.07-.12.14-.12s.12.05.12.13l-.01 1.15c0 .07-.06.13-.13.12-.07 0-.14-.06-.14-.13v-.44h-.66v.44c0 .07-.05.12-.12.12-.08 0-.13-.06-.13-.13"/><path fill="#FFF" d="M28.704 69.954a1.7 1.7 0 1 1 0 3.401 1.7 1.7 0 0 1 0-3.4"/><path fill="#7E8C9B" d="M28.074 72.164l.01-1.15c0-.07.05-.13.14-.13.07 0 .12.05.12.13v.44h.66v-.44c0-.07.07-.13.14-.12.07 0 .12.05.12.13l-.01 1.15c0 .07-.05.12-.12.12-.07 0-.14-.06-.14-.13v-.44h-.66v.44c0 .07-.05.13-.12.12-.09.01-.14-.05-.14-.12"/><path fill="#58656F" d="M77.554 49.934a3.05 3.05 0 1 1 .001 6.099 3.05 3.05 0 0 1-.001-6.099"/><path fill="#FFF" d="M76.574 52.894c0-.59.38-1.09 1.08-1.09.27 0 .48.08.7.28.08.08.09.21.01.3a.21.21 0 0 1-.28-.01c-.12-.13-.25-.17-.43-.17-.47 0-.7.33-.7.7 0 .38.22.73.69.73.17 0 .34-.07.48-.19.1-.07.23-.04.28.04.05.07.07.18-.04.29-.21.2-.47.24-.72.23-.74-.01-1.07-.52-1.07-1.11"/><path fill="#58656F" d="M68.734 41.114a3.05 3.05 0 1 1 0 6.101 3.05 3.05 0 0 1 0-6.101"/><path fill="#FFF" d="M67.754 44.074c0-.59.38-1.09 1.08-1.09.27 0 .48.08.7.28.08.08.09.21.01.3-.08.07-.21.06-.28-.01-.12-.13-.25-.17-.43-.17-.47 0-.7.33-.7.7 0 .38.22.73.69.73.17 0 .34-.07.48-.19.09-.07.23-.04.28.04.05.07.07.18-.04.29-.21.2-.47.24-.72.23-.74-.01-1.07-.52-1.07-1.11m-6.14-8.36a1.7 1.7 0 1 1 0 3.4 1.7 1.7 0 0 1 0-3.4"/><path fill="#7E8C9B" d="M60.984 37.934l.01-1.15c0-.07.05-.13.14-.12.07 0 .12.05.12.13v.44h.66v-.44c0-.07.07-.12.14-.12s.12.05.12.13l-.01 1.15c0 .07-.05.12-.12.12-.07 0-.14-.06-.14-.13v-.44h-.66v.44c0 .07-.05.13-.12.13-.09-.02-.14-.07-.14-.14m2.3 1.8a.512.512 0 0 1 .01-.71c.2-.19.52-.19.71.01.19.2.19.51-.01.71a.505.505 0 0 1-.71-.01m1.4 1.43a.505.505 0 0 1 .01-.71c.2-.19.51-.19.71.01.19.2.19.52-.01.71a.514.514 0 0 1-.35.14c-.13 0-.26-.05-.36-.15"/><path fill="#ADBBC3" d="M69.234 37.794l-.5 2.68-.5-2.68a.503.503 0 0 1 .41-.59.505.505 0 0 1 .59.59m-19.16 37.75c-.28 0-.5-.22-.5-.5v-2.04c0-.28.22-.5.5-.5s.5.22.5.5v2.04c0 .28-.22.5-.5.5m1.36 0c-.28 0-.5-.22-.5-.5v-2.04c0-.28.22-.5.5-.5s.5.22.5.5v2.04c0 .28-.22.5-.5.5m-.68-31.86c-.28 0-.5-.22-.5-.5v-2.04c0-.28.22-.5.5-.5s.5.22.5.5v2.04c0 .28-.22.5-.5.5m9.16 15.91c-.28 0-.5-.22-.5-.5v-2.04c0-.28.22-.5.5-.5s.5.22.5.5v2.04c0 .28-.22.5-.5.5m17.64-10.14c-.28 0-.5-.22-.5-.5v-2.04c0-.28.22-.5.5-.5s.5.22.5.5v2.04c0 .27-.22.5-.5.5m0 10.18c-.28 0-.5-.22-.5-.5v-2.04c0-.28.22-.5.5-.5s.5.22.5.5v2.04a.5.5 0 0 1-.5.5m-30.87 8.48c-.1 0-.19-.03-.28-.08l-2.04-1.36a.498.498 0 0 1 .55-.83l2.04 1.36a.497.497 0 0 1-.27.91m-2.04-17.68c-.16 0-.32-.08-.42-.22a.498.498 0 0 1 .14-.69l2.04-1.36a.498.498 0 0 1 .55.83l-2.04 1.36c-.07.05-.17.08-.27.08m12.22-.03a.563.563 0 0 1-.28-.08l-2.04-1.36a.497.497 0 0 1 .55-.83l2.04 1.36a.497.497 0 0 1-.27.91m6.1.03a.47.47 0 0 1-.35-.15c-.2-.2-.2-.51 0-.71l2.71-2.71c.2-.2.51-.2.71 0 .201.2.201.51 0 .71l-2.71 2.71c-.1.1-.23.15-.36.15m-27.14 19.04a.47.47 0 0 1-.35-.15.495.495 0 0 1 0-.71l2.71-2.71c.2-.2.51-.2.71 0 .2.2.2.51 0 .71l-2.71 2.71a.51.51 0 0 1-.36.15m29.86 0a.47.47 0 0 1-.35-.15l-2.71-2.71a.495.495 0 0 1 0-.71.493.493 0 0 1 .71 0l2.71 2.71a.493.493 0 0 1 0 .71.509.509 0 0 1-.36.15m-27.14-19.07a.47.47 0 0 1-.35-.15l-2.71-2.71c-.2-.2-.2-.51 0-.71.2-.2.51-.2.71 0l2.71 2.71c.2.2.2.51 0 .71-.11.1-.24.15-.36.15m35.96.03a.47.47 0 0 1-.35-.15l-2.71-2.71c-.2-.2-.2-.51 0-.71.2-.2.51-.2.71 0l2.71 2.71c.2.2.2.51 0 .71-.1.1-.23.15-.36.15m6.11 0a.471.471 0 0 1-.35-.15c-.2-.2-.2-.51 0-.71l2.71-2.71c.2-.2.51-.2.71 0 .2.2.2.51 0 .71l-2.71 2.71a.52.52 0 0 1-.36.15m-24.43 1.02c-.1 0-.19-.03-.28-.08l-2.04-1.36a.499.499 0 0 1 .55-.83l2.04 1.36c.23.15.29.46.14.69a.49.49 0 0 1-.41.22m-1.02 16.96c-.16 0-.32-.08-.42-.22a.498.498 0 0 1 .14-.69l2.04-1.36a.5.5 0 0 1 .55.83l-2.04 1.36a.438.438 0 0 1-.27.08m-.68-.98c-.16 0-.32-.08-.42-.22a.499.499 0 0 1 .14-.69l2.04-1.36a.498.498 0 0 1 .55.83l-2.04 1.36a.497.497 0 0 1-.27.08"/><path fill="#FFE178" d="M38.924 56.944v-23.88h-10v23.88c0 3.05-1.64 5.93-4.37 7.29-6.9 3.44-11.63 10.54-11.63 18.77 0 5.8 2.36 11.04 6.16 14.84.74.75 1.76 1.16 2.82 1.16h24.03c1.06 0 2.08-.41 2.83-1.16 3.8-3.8 6.16-9.04 6.16-14.84 0-8.23-4.74-15.33-11.63-18.77-2.73-1.37-4.37-4.24-4.37-7.29"/><path fill="#FFFBD4" d="M28.624 65.944c-1.93 0-3.7.99-4.76 2.6-2.44 3.72-3.94 8.72-3.94 14.4 0 .64.02 1.27.06 1.9.17 2.87 2.59 5.1 5.47 5.1 3.04 0 5.51-2.47 5.48-5.51 0-.49-.01-.99-.01-1.49 0-5.19.27-9.94.72-13.6a3.044 3.044 0 0 0-3.02-3.4"/><path fill="#FFCA5B" d="M38.924 83.094c-.01 7.1-5.76 12.85-12.86 12.85-4.76 0-9.02-3.08-10.37-7.65-.51-1.72-.77-3.51-.77-5.35 0-7.24 4.03-13.74 10.52-16.98 3.33-1.66 5.48-5.23 5.48-9.08v-19.88c0-.55.45-1 1-1h2.19c.55 0 1 .45 1 1v19.88c0 3.05.39 5.93 1.04 7.29 1.64 3.44 2.77 10.55 2.77 18.77v.15zm4.37-18.92c-2.73-1.36-4.37-4.24-4.37-7.29v-23.88h-3.81v1h-5.19v22.88c0 3.48-1.93 6.69-4.93 8.19-6.83 3.41-11.07 10.26-11.07 17.88 0 5.33 2.08 10.35 5.87 14.13.05.05.12.09.18.11.11.43.49.75.95.75h16.48c-.17.64-.39 1-.63 1h9.15c1.06 0 2.08-.41 2.83-1.16 3.8-3.8 6.16-9.04 6.16-14.84.01-8.23-4.73-15.33-11.62-18.77z"/><path fill="#F09820" d="M42.844 65.064c-2.99-1.49-4.93-4.71-4.93-8.19v-22.87h-8.91v1h6.92c.55 0 1 .45 1 1v20.88c0 3.86 2.15 7.42 5.48 9.08 6.49 3.24 10.52 9.75 10.52 16.98 0 5.07-1.98 9.83-5.57 13.43-.2.2-.2.51 0 .71.1.1.23.15.35.15a.49.49 0 0 0 .35-.15c3.78-3.78 5.87-8.8 5.87-14.13 0-7.63-4.25-14.48-11.08-17.89"/><path fill="#F7991C" d="M44.654 76.004c-.55.96-1.77 1.28-2.73.73a1.995 1.995 0 0 1-.73-2.73c.55-.96 1.77-1.28 2.73-.73s1.28 1.77.73 2.73m9.67 2h-.4c0-1.11-1.21-2.08-3-2.6-.41-.12-1.21-.21-2-.27-.99-.08-1.93-.66-2.29-1.6-.34-.89-1.02-1.68-2.02-2.16a3.993 3.993 0 0 0-4.1.43c-.95.74-1.46 1.75-1.56 2.78-.11 1.15-.83 2.16-1.95 2.48-1.83.52-3.08.94-3.08.94s-5.73 1.91-10.58 2.68c-.74.12-1.41-.35-1.67-1.04-.33-.89-1.03-1.53-1.91-1.64-.97-.12-1.89.44-2.42 1.36-.42.73-1.36.97-2.08.53-.84-.52-1.34-1.17-1.34-1.89h-.4c-.39 1.6-.6 3.28-.6 5 0 5.8 2.36 11.04 6.16 14.84.75.75 1.77 1.16 2.83 1.16h24.02c1.06 0 2.08-.41 2.83-1.16 3.8-3.8 6.16-9.04 6.16-14.84 0-1.72-.21-3.4-.6-5"/><path fill="#F4821F" d="M44.654 75.944a1.994 1.994 0 0 1-2.73.73 1.993 1.993 0 0 1-.73-2.73c.55-.96 1.77-1.28 2.73-.73s1.28 1.77.73 2.73m10.27 7c0-.5-.02-1-.05-1.49 0-.05-.01-.11-.01-.16-.03-.42-.08-.84-.14-1.25-.01-.1-.03-.21-.05-.31-.06-.38-.12-.75-.2-1.12l-.06-.28c-.03-.13-.07-.26-.1-.39h-.38c0-1.11-1.21-2.08-3-2.6-.41-.12-1.21-.21-2-.27-.99-.08-1.93-.66-2.29-1.6-.34-.89-1.02-1.68-2.02-2.16a3.991 3.991 0 0 0-4.1.43c-.95.74-1.46 1.75-1.56 2.78-.04.41-.16.8-.34 1.15.2 2.26.31 4.71.31 7.27v.15c-.01 7.1-5.76 12.85-12.86 12.85-4.76 0-9.02-3.08-10.37-7.65-.51-1.72-.77-3.51-.77-5.35 0-1.07.1-2.13.27-3.16-.37-.24-.66-.5-.88-.78-.25 1.28-.39 2.6-.39 3.94 0 5.33 2.08 10.35 5.87 14.13.05.05.12.09.18.11.11.43.49.75.95.75h16.47c-.17.64-.39 1-.63 1h9.15c1.06 0 2.08-.41 2.83-1.16a20.841 20.841 0 0 0 6.17-14.83"/><path fill="#E46226" d="M52.744 76.164c-.37-.25-.83-.48-1.34-.66.98 2.31 1.51 4.82 1.51 7.44 0 5.07-1.98 9.83-5.57 13.43-.2.2-.2.51 0 .71a.485.485 0 0 0 .7 0c3.78-3.78 5.87-8.8 5.87-14.13.01-2.37-.4-4.65-1.17-6.79"/><path fill="#FFFBD4" d="M33.534 55.574v-16.57c0-.72-.59-1.31-1.31-1.31-.72 0-1.31.59-1.31 1.31v16.57c0 .72.59 1.31 1.31 1.31.73 0 1.31-.59 1.31-1.31"/><path fill="#310E31" d="M40.924 34.004h-14c-.55 0-1-.45-1-1s.45-1 1-1h14c.55 0 1 .45 1 1s-.45 1-1 1"/><path fill="#310E31" d="M38.924 36.004c-.55 0-1-.45-1-1 0-1.65 1.35-3 3-3 .55 0 1 .45 1 1s-.45 1-1 1-1 .45-1 1-.45 1-1 1m-10 0c-.55 0-1-.45-1-1s-.45-1-1-1-1-.45-1-1 .45-1 1-1c1.65 0 3 1.35 3 3 0 .55-.45 1-1 1m5 42.44c-.21 0-.4-.13-.47-.34-.09-.26.05-.55.32-.63.01 0 1.29-.43 3.1-.95.87-.25 1.49-1.05 1.59-2.05.12-1.23.74-2.34 1.75-3.12a4.482 4.482 0 0 1 4.62-.49c1.06.51 1.87 1.37 2.28 2.44.27.71 1 1.21 1.86 1.28 1.01.08 1.71.18 2.1.29 2.1.61 3.36 1.76 3.36 3.08 0 .28-.22.5-.5.5s-.5-.22-.5-.5c0-.82-1.04-1.65-2.64-2.12-.31-.09-.99-.18-1.9-.25-1.24-.1-2.31-.85-2.72-1.91-.32-.84-.94-1.49-1.77-1.89-1.16-.55-2.56-.41-3.57.38-.79.61-1.28 1.47-1.37 2.43-.14 1.41-1.04 2.55-2.31 2.91-1.8.51-3.05.93-3.06.93-.07 0-.12.01-.17.01"/><path fill="#310E31" d="M42.924 73.444c-.13 0-.26.02-.39.05-.39.1-.71.35-.91.7a1.501 1.501 0 1 0 2.75.36 1.46 1.46 0 0 0-.7-.91c-.24-.13-.49-.2-.75-.2m-.01 4c-.42 0-.85-.11-1.25-.33a2.52 2.52 0 0 1-.92-3.42c.33-.58.87-.99 1.52-1.16a2.48 2.48 0 0 1 1.9.25c.58.33.99.87 1.16 1.52.17.64.08 1.32-.25 1.9a2.48 2.48 0 0 1-2.16 1.24"/><path fill="#E68724" d="M28.914 74.784a2.957 2.957 0 0 0-.73-1.81c-.8-.93-2.16-1.28-3.31-.84-.81.31-1.39.9-1.69 1.6-.36.82-1.21 1.32-2.1 1.25-.4-.03-.79-.05-1.16-.05-3.31 0-6 1.34-6 3 0 .72.5 1.37 1.34 1.89.71.44 1.66.2 2.08-.53.53-.92 1.45-1.48 2.42-1.36.88.11 1.58.76 1.91 1.64.26.7.93 1.16 1.67 1.05 4.86-.77 10.58-2.68 10.58-2.68s-1.42-.47-3.44-1.04c-.95-.27-1.53-1.14-1.57-2.12"/><path fill="#310E31" d="M19.494 77.424c.11 0 .22.01.33.02 1.04.13 1.9.86 2.32 1.96.19.51.65.8 1.12.73 3.27-.52 6.98-1.57 9-2.19-.53-.16-1.18-.35-1.91-.56-1.12-.31-1.88-1.33-1.93-2.57a2.524 2.524 0 0 0-.61-1.51 2.497 2.497 0 0 0-4.17.63 2.614 2.614 0 0 1-2.6 1.55 14.37 14.37 0 0 0-1.12-.05c-3.24 0-5.5 1.32-5.5 2.5 0 .51.39 1.03 1.1 1.46.23.14.5.18.77.11.26-.07.48-.23.62-.46.58-1.02 1.55-1.62 2.58-1.62m3.62 3.72c-.83 0-1.59-.54-1.91-1.39-.28-.74-.84-1.24-1.51-1.32-.74-.08-1.47.33-1.92 1.12a2 2 0 0 1-1.24.94c-.53.13-1.08.05-1.54-.23-1.02-.62-1.58-1.45-1.58-2.31 0-1.96 2.85-3.5 6.5-3.5.38 0 .78.02 1.2.05.7.06 1.33-.33 1.6-.96.38-.87 1.08-1.53 1.97-1.87 1.35-.51 2.94-.11 3.87.98.52.61.81 1.34.85 2.12.04.81.51 1.46 1.21 1.66 2.01.57 3.45 1.04 3.46 1.05.2.07.34.26.34.47 0 .21-.14.41-.34.47-.06.02-5.82 1.93-10.66 2.7-.1.01-.2.02-.3.02"/><path fill="#FFCA5B" d="M30.924 84.434c0-.49-.01-.99-.01-1.49 0-1.4.02-2.77.06-4.1-2.1.6-4.99 1.36-7.63 1.78-.74.12-1.41-.35-1.67-1.04-.26-.69-.74-1.23-1.36-1.48-.25 1.55-.4 3.16-.4 4.84 0 .64.02 1.27.06 1.9.17 2.87 2.59 5.1 5.47 5.1 3.04 0 5.51-2.47 5.48-5.51"/><path fill="#FFCA5B" d="M30.484 76.904c-.94-.27-1.52-1.14-1.57-2.12a2.957 2.957 0 0 0-.73-1.81c-.8-.93-2.16-1.28-3.31-.84-.81.31-1.39.9-1.69 1.6a2.119 2.119 0 0 1-2.1 1.25h-.09c-.28 1-.5 2.04-.67 3.11.61.26 1.09.79 1.35 1.48.26.7.93 1.16 1.67 1.05 2.65-.42 5.55-1.18 7.64-1.78l.06-1.78c-.19-.05-.37-.11-.56-.16"/><path fill="#CC9739" d="M29.414 74.764a3.516 3.516 0 0 0-.85-2.12c-.93-1.09-2.53-1.5-3.87-.98-.9.34-1.6 1.01-1.97 1.87-.27.61-.91 1.01-1.58.95-.1.33-.19.66-.28.99.06 0 .12 0 .18.01a2.62 2.62 0 0 0 2.6-1.55c.27-.62.77-1.09 1.41-1.34.96-.36 2.09-.08 2.76.7.37.44.58.96.61 1.51.06 1.25.82 2.26 1.93 2.58.24.07.45.13.67.19.01-.35.03-.69.04-1.03-.15-.04-.29-.08-.45-.13-.69-.19-1.16-.84-1.2-1.65m-6.16 5.37c-.48.08-.93-.22-1.12-.73-.33-.88-.97-1.51-1.74-1.8-.06.33-.12.66-.17 1.01.42.22.77.61.97 1.14.32.85 1.08 1.39 1.91 1.39.1 0 .2-.01.31-.02 2.59-.41 5.45-1.15 7.55-1.75l.03-1.05c-2.1.6-5.06 1.38-7.74 1.81"/><path fill="#FFCA5B" d="M38.164 51.984c.16.46.42.86.75 1.18v-14.09c-.61.1-1.19.35-1.67.75a3.496 3.496 0 0 0-1.22 3.06c.05.45-.16.94-.58 1.33a4.49 4.49 0 0 0-1.44 3.29c0 2.35 1.82 4.29 4.16 4.48"/><path fill="#F09820" d="M35.114 44.594v5.84c.75.87 1.83 1.45 3.06 1.55.16.46.42.86.75 1.18v-14.09c-.61.1-1.19.35-1.67.75a3.472 3.472 0 0 0-1.23 3.06c.05.45-.16.94-.58 1.33-.13.12-.22.25-.33.38"/><path fill="#F4821F" d="M37.924 39.384c-.24.12-.46.26-.67.44-.12.1-.22.23-.33.35v11.51c.32.12.65.21 1 .26v-12.56z"/><path fill="#310E31" d="M29.924 34.064v22.88c0 3.48-1.93 6.69-4.93 8.19-6.83 3.4-11.07 10.25-11.07 17.87 0 5.33 2.08 10.35 5.87 14.13.54.55 1.31.87 2.11.87h24.03c.8 0 1.57-.32 2.12-.87 3.78-3.78 5.87-8.8 5.87-14.13 0-7.62-4.24-14.47-11.07-17.88-2.99-1.49-4.93-4.71-4.93-8.19v-22.87h-8zm16.01 65.94h-24.03c-1.32 0-2.61-.53-3.53-1.45-4.16-4.16-6.45-9.68-6.45-15.55 0-8.38 4.67-15.92 12.18-19.67 2.32-1.16 3.82-3.67 3.82-6.4v-24.87h12v24.88c0 2.73 1.5 5.24 3.82 6.4 7.51 3.74 12.18 11.28 12.18 19.66 0 5.87-2.29 11.39-6.45 15.55a5.07 5.07 0 0 1-3.54 1.45z"/><path fill="#5387C6" d="M47.944 99.004h42.06l-10-36h-38z"/><path fill="#5387C6" d="M90.004 99.004h-20c5.52-8 14.48-8 20 0"/><path fill="#406DB5" d="M72.664 96.004h14.69c-4.51-3.97-10.19-3.97-14.69 0"/><path fill="#310E31" d="M48.794 98.004h39.89l-9.44-34h-36.06l5.61 34zm41.21 2h-42.06a1 1 0 0 1-.99-.84l-5.94-36c-.05-.29.03-.59.22-.81.2-.22.48-.35.77-.35h38c.45 0 .84.3.96.73l10 36c.08.3.02.62-.17.87a.98.98 0 0 1-.79.4z"/><path fill="#FFF" d="M70.004 99.004h-40l10-36h40z"/><path fill="#310E31" d="M71.324 98.004h17.37l-8.69-31.26-8.68 31.26zm18.68 2h-20c-.31 0-.61-.15-.8-.39-.19-.25-.25-.57-.17-.87l10-36c.13-.44.52-.74.97-.74.45 0 .84.3.96.73l10 36c.08.3.02.62-.17.87a.98.98 0 0 1-.79.4z"/><path fill="#D2DFEA" d="M38.324 84.734l.63-2.27a2.003 2.003 0 0 1 1.93-1.46h6.09c.66 0 1.14.63.96 1.27l-.63 2.27c-.24.86-1.02 1.46-1.92 1.46h-6.09c-.66 0-1.14-.63-.97-1.27m-2.28 7.88l.63-2.27a2.004 2.004 0 0 1 1.93-1.46h6.09c.66 0 1.14.63.96 1.27l-.63 2.27c-.24.86-1.03 1.46-1.93 1.46h-6.09c-.66-.01-1.14-.64-.96-1.27"/><path fill="#301330" d="M49.324 84.734l.63-2.27a2.003 2.003 0 0 1 1.93-1.46h6.09c.66 0 1.14.63.96 1.27l-.63 2.27c-.24.86-1.02 1.46-1.92 1.46h-6.09c-.66 0-1.14-.63-.97-1.27"/><path fill="#D2DFEA" d="M40.474 76.844l.63-2.27a2.003 2.003 0 0 1 1.93-1.46h6.09c.66 0 1.14.63.96 1.27l-.63 2.27a2.005 2.005 0 0 1-1.93 1.46h-6.09c-.66-.01-1.14-.64-.96-1.27m11 0l.63-2.27a2.005 2.005 0 0 1 1.93-1.46h6.09c.66 0 1.14.63.96 1.27l-.63 2.27a2.006 2.006 0 0 1-1.93 1.46h-6.09c-.66-.01-1.14-.64-.96-1.27"/><path fill="#EE4827" d="M62.474 76.844l.63-2.27a2.003 2.003 0 0 1 1.93-1.46h6.09c.66 0 1.14.63.96 1.27l-.63 2.27a2.005 2.005 0 0 1-1.93 1.46h-6.09c-.66-.01-1.14-.64-.96-1.27"/><path fill="#D2DFEA" d="M60.324 84.734l.63-2.27a2.003 2.003 0 0 1 1.93-1.46h6.09a.996.996 0 0 1 .96 1.27l-.63 2.27a1.991 1.991 0 0 1-1.92 1.46h-6.09c-.66 0-1.14-.63-.97-1.27"/><path fill="#EE4827" d="M47.044 92.614l.63-2.27a2.004 2.004 0 0 1 1.93-1.46h6.09c.66 0 1.14.63.96 1.27l-.63 2.27a2.002 2.002 0 0 1-1.93 1.46h-6.09c-.66-.01-1.14-.64-.96-1.27"/><path fill="#D2DFEA" d="M58.044 92.614l.63-2.27a2.004 2.004 0 0 1 1.93-1.46h6.09c.66 0 1.14.63.96 1.27l-.63 2.27a2.002 2.002 0 0 1-1.93 1.46h-6.09c-.66-.01-1.14-.64-.96-1.27"/><path fill="#ADBBC3" d="M72.414 90.324l-9.41 8.68h-1.39c1.4 0 2.61-.97 2.93-2.33l1.07-4.67h4.11c1.16 0 2.2-.67 2.69-1.68"/><path fill="#85C1EA" d="M77.784 70.004l2.22-7h-40l-2.22 7z"/><path fill="#69A6DA" d="M46.004 67.504c-.28 0-.5-.22-.5-.5s.22-.5.5-.5c1.93 0 3.5-1.57 3.5-3.5 0-.28.22-.5.5-.5s.5.22.5.5c0 2.48-2.02 4.5-4.5 4.5m13 0c-.28 0-.5-.22-.5-.5s.22-.5.5-.5c1.93 0 3.5-1.57 3.5-3.5 0-.28.22-.5.5-.5s.5.22.5.5c0 2.48-2.02 4.5-4.5 4.5m-1.5 0c-.28 0-.5-.22-.5-.5 0-1.1.9-2 2-2 .28 0 .5.22.5.5s-.22.5-.5.5c-.55 0-1 .45-1 1 0 .28-.22.5-.5.5m13 0c-.28 0-.5-.22-.5-.5 0-1.1.9-2 2-2 .28 0 .5.22.5.5s-.22.5-.5.5c-.55 0-1 .45-1 1 0 .28-.22.5-.5.5m-26 0c-.28 0-.5-.22-.5-.5 0-1.1.9-2 2-2 .28 0 .5.22.5.5s-.22.5-.5.5c-.55 0-1 .45-1 1 0 .28-.22.5-.5.5"/><path fill="#5387C6" d="M46.004 67.504c-.28 0-.5-.22-.5-.5s.22-.5.5-.5c.85 0 1.67-.31 2.31-.88.21-.18.52-.16.71.04.18.21.16.52-.04.71-.83.73-1.88 1.13-2.98 1.13m13 0c-.28 0-.5-.22-.5-.5s.22-.5.5-.5c.85 0 1.67-.31 2.31-.88.21-.18.52-.16.71.04.18.21.16.52-.04.71-.83.73-1.88 1.13-2.98 1.13"/><path fill="#69A6DA" d="M72.004 67.504c-.28 0-.5-.22-.5-.5s.22-.5.5-.5c1.93 0 3.5-1.57 3.5-3.5 0-.28.22-.5.5-.5s.5.22.5.5c0 2.48-2.02 4.5-4.5 4.5"/><path fill="#5387C6" d="M72.004 67.504c-.28 0-.5-.22-.5-.5s.22-.5.5-.5c.85 0 1.67-.31 2.31-.88.21-.18.52-.16.71.04.18.21.16.52-.04.71-.83.73-1.88 1.13-2.98 1.13"/><path fill="#310E31" d="M31.324 98.004h37.92l9.44-34h-37.92l-9.44 34zm38.68 2h-40c-.31 0-.61-.15-.8-.39-.19-.25-.25-.57-.17-.87l10-36c.13-.44.52-.74.97-.74h40c.31 0 .61.15.8.39.19.25.25.57.17.87l-10 36c-.13.44-.52.74-.97.74z"/><path fill="#310E31" d="M60.024 99.504h-30.02c-.28 0-.5-.22-.5-.5s.22-.5.5-.5h30.02c2.11 0 3.91-1.44 4.39-3.49l.72-3.12c.05-.23.25-.39.49-.39h2.58a4.52 4.52 0 0 0 4.34-3.3l6.99-25.33a.495.495 0 0 1 .61-.35c.27.07.42.35.35.62l-6.99 25.33a5.52 5.52 0 0 1-5.3 4.04h-2.18l-.63 2.73a5.49 5.49 0 0 1-5.37 4.26m-1.02-32c-2.48 0-4.5-2.02-4.5-4.5s2.02-4.5 4.5-4.5 4.5 2.02 4.5 4.5c0 .28-.22.5-.5.5s-.5-.22-.5-.5c0-1.93-1.57-3.5-3.5-3.5s-3.5 1.57-3.5 3.5 1.57 3.5 3.5 3.5c.28 0 .5.22.5.5s-.22.5-.5.5m-13.06 0c-2.48 0-4.5-2.02-4.5-4.5s2.02-4.5 4.5-4.5 4.5 2.02 4.5 4.5c0 .28-.22.5-.5.5s-.5-.22-.5-.5c0-1.93-1.57-3.5-3.5-3.5s-3.5 1.57-3.5 3.5 1.57 3.5 3.5 3.5c.28 0 .5.22.5.5s-.22.5-.5.5"/><path fill="#301330" d="M45.944 66.004a1 1 0 1 1 0 2 1 1 0 0 1 0-2"/><path fill="#310E31" d="M72.004 67.504c-2.48 0-4.5-2.02-4.5-4.5s2.02-4.5 4.5-4.5 4.5 2.02 4.5 4.5c0 .28-.22.5-.5.5s-.5-.22-.5-.5c0-1.93-1.57-3.5-3.5-3.5s-3.5 1.57-3.5 3.5 1.57 3.5 3.5 3.5c.28 0 .5.22.5.5s-.22.5-.5.5"/><path fill="#301330" d="M72.004 66.004a1 1 0 1 1 0 2 1 1 0 1 1 0-2"/><path fill="#310E31" d="M90.004 100.004c-.32 0-.63-.15-.82-.43-2.48-3.59-5.74-5.57-9.18-5.57-3.44 0-6.7 1.98-9.18 5.57-.31.45-.94.57-1.39.25a.996.996 0 0 1-.25-1.39c2.86-4.15 6.7-6.43 10.82-6.43s7.96 2.28 10.82 6.43a1.004 1.004 0 0 1-.82 1.57"/><path fill="#310E31" d="M79.004 94.004h-7c-.55 0-1-.45-1-1s.45-1 1-1h7c.55 0 1 .45 1 1s-.45 1-1 1"/><path fill="#310E31" d="M72.004 97.004a1.01 1.01 0 0 1-.9-1.45l1-2c.25-.49.85-.69 1.34-.45.49.25.69.85.45 1.34l-1 2c-.17.36-.52.56-.89.56"/><path fill="#FFF" d="M54.004 84.504a.47.47 0 0 1-.35-.15l-1-1c-.2-.2-.2-.51 0-.71.2-.2.51-.2.71 0l.68.68 4.65-3.72c.22-.17.53-.14.7.08.17.22.14.53-.08.7l-5 4c-.09.08-.2.12-.31.12m13-8a.47.47 0 0 1-.35-.15l-1-1c-.2-.2-.2-.51 0-.71.2-.2.51-.2.71 0l.68.68 4.65-3.72c.22-.17.53-.14.7.08.17.22.14.53-.08.7l-5 4c-.09.08-.2.12-.31.12m-23.87 6.25a.75.75 0 1 1 0 1.5.75.75 0 0 1 0-1.5m2.14-7.9a.75.75 0 1 1 0 1.5.75.75 0 0 1 0-1.5m11 0a.75.75 0 1 1 0 1.499.75.75 0 0 1 0-1.5m-15.43 15.771a.75.75 0 1 1 0 1.5.75.75 0 0 1 0-1.5m22 0a.75.75 0 1 1 0 1.5.75.75 0 0 1 0-1.5m-11 0a.75.75 0 1 1 0 1.5.75.75 0 0 1 0-1.5m13.29-7.87a.75.75 0 1 1 0 1.5.75.75 0 0 1 0-1.5"/><path fill="#301330" d="M59.004 66.004a1 1 0 1 1 0 2 1 1 0 1 1 0-2"/><path fill="#406DB5" d="M75.724 84.504a.49.49 0 0 0 .48-.37v-.01a7.656 7.656 0 0 1 6.19-4.56c.34-.04.57-.07.63-.08.27-.07.42-.35.35-.62l-3.37-12.12-4.76 17.13c-.07.27.08.54.35.62.04 0 .09.01.13.01"/><path fill="#310E31" d="M63.004 99.504a.505.505 0 0 1-.33-.88l9-8c.21-.18.52-.17.71.04.18.21.17.52-.04.71l-9 8c-.1.09-.22.13-.34.13"/><path fill="#FFF" d="M75.004 26.004a1 1 0 1 1 0 2 1 1 0 0 1 0-2m6 8a2 2 0 1 1-.001 4.001 2 2 0 0 1 .001-4.001m5 18a2 2 0 1 1-.001 4.001 2 2 0 0 1 .001-4.001m-21 3a1 1 0 1 1 0 2 1 1 0 1 1 0-2m10-16a1 1 0 1 1 0 2 1 1 0 0 1 0-2m6.5 19a.5.5 0 1 1 0 1 .5.5 0 0 1 0-1m-3-29a.5.5 0 1 1 0 1 .5.5 0 0 1 0-1m-10-2a.5.5 0 1 1 0 1 .5.5 0 0 1 0-1m20.5 10a1 1 0 1 1 0 2 1 1 0 0 1 0-2m-4.5-11a.5.5 0 1 1 0 1 .5.5 0 0 1 0-1m-18 26a.5.5 0 1 1 0 1 .5.5 0 0 1 0-1m-14.5 4a1 1 0 1 1 .002 1.998 1 1 0 0 1-.002-1.998m33.5 3a.5.5 0 1 1 0 1 .5.5 0 0 1 0-1m-13-39a.5.5 0 1 1 0 1 .5.5 0 0 1 0-1m-13.5 22a1 1 0 1 1 0 2 1 1 0 0 1 0-2m-10.5 13a.5.5 0 1 1 0 1 .5.5 0 0 1 0-1"/><path fill="#FFE178" d="M20.004 57.004a2 2 0 1 1-.001 4.001 2 2 0 0 1 .001-4.001"/><path fill="#310E31" d="M20.004 57.504c-.83 0-1.5.67-1.5 1.5s.67 1.5 1.5 1.5 1.5-.67 1.5-1.5-.67-1.5-1.5-1.5m0 4a2.5 2.5 0 0 1 0-5 2.5 2.5 0 0 1 0 5"/><path fill="#FFFBD4" d="M23.504 37.004a.5.5 0 1 1 0 1 .5.5 0 0 1 0-1m0 6a.5.5 0 1 1 0 1 .5.5 0 0 1 0-1m-3-3a.5.5 0 1 1 0 1 .5.5 0 0 1 0-1m6-15a.5.5 0 1 1 0 1 .5.5 0 0 1 0-1"/><path fill="#FBB653" d="M20.504 45.004a.5.5 0 1 1 0 1 .5.5 0 0 1 0-1m16-27a.5.5 0 1 1 0 1 .5.5 0 0 1 0-1m-2 9a.5.5 0 1 1 0 1 .5.5 0 0 1 0-1m-8.19 16.79c-.19-.29-.64-.17-.69.17-.07.57-.38 1.18-.89 1.7-.51.51-1.12.82-1.69.89-.34.05-.45.5-.16.69.49.32 1.11.47 1.76.36a2.486 2.486 0 0 0 2.03-2.05c.11-.66-.04-1.27-.36-1.76m7.55-23.04c-.2-.31-.69-.19-.74.18-.08.61-.41 1.27-.95 1.82-.55.55-1.21.88-1.82.95-.36.05-.48.54-.18.74.53.34 1.19.5 1.89.39a2.678 2.678 0 0 0 2.19-2.19c.11-.71-.05-1.36-.39-1.89"/><path fill="#FBB653" d="M31.144 26.824c.2.31.69.19.74-.18.08-.61.41-1.27.95-1.82.55-.55 1.21-.88 1.82-.95.36-.05.48-.54.18-.74a2.7 2.7 0 0 0-1.89-.39 2.678 2.678 0 0 0-2.19 2.19c-.11.71.05 1.37.39 1.89"/><path fill="#FFFBD4" d="M20.564 35.494a.49.49 0 0 1-.66-.48c.03-2.04.98-3.9 2.61-5.12.22-.17.53-.12.7.1.16.22.12.53-.1.7a5.442 5.442 0 0 0-2.2 4.33c-.01.22-.16.4-.35.47m7.14-12.79c-.06 0-.11-.01-.17-.03a.493.493 0 0 1-.3-.64 6.455 6.455 0 0 1 4.11-4.01.5.5 0 0 1 .31.95 5.437 5.437 0 0 0-3.48 3.39c-.07.21-.26.34-.47.34"/><path fill="#F09820" d="M40.504 29.004a.5.5 0 1 1 0 1 .5.5 0 0 1 0-1"/><path fill="#FFE178" d="M41.504 25.004a.5.5 0 1 1 0 1 .5.5 0 0 1 0-1"/><path fill="#FFFBD4" d="M19.504 58.004a.5.5 0 1 1 0 1 .5.5 0 0 1 0-1"/><path fill="#FFE178" d="M14.004 61.004a2 2 0 1 1-.001 4.001 2 2 0 0 1 .001-4.001"/><path fill="#310E31" d="M14.004 61.504c-.83 0-1.5.67-1.5 1.5s.67 1.5 1.5 1.5 1.5-.67 1.5-1.5-.67-1.5-1.5-1.5m0 4a2.5 2.5 0 0 1 0-5 2.5 2.5 0 0 1 0 5"/><path fill="#FFFBD4" d="M13.504 62.004a.5.5 0 1 1 0 1 .5.5 0 0 1 0-1"/><path fill="#FFE178" d="M13.004 49.004a3 3 0 1 1 0 6 3 3 0 0 1 0-6"/><path fill="#310E31" d="M13.004 49.504a2.5 2.5 0 0 0 0 5 2.5 2.5 0 0 0 0-5m0 6c-1.93 0-3.5-1.57-3.5-3.5s1.57-3.5 3.5-3.5 3.5 1.57 3.5 3.5-1.57 3.5-3.5 3.5"/><path fill="#FFFBD4" d="M12.254 50.504a.75.75 0 1 1 0 1.5.75.75 0 0 1 0-1.5"/><path fill="#FFE178" d="M47.004 34.004a3 3 0 1 1 0 6 3 3 0 0 1 0-6"/><path fill="#FBB653" d="M49.404 35.214c-.3-.4-.9-.13-.91.36-.02.74-.3 1.48-.87 2.05-.57.57-1.3.86-2.05.87-.5.01-.76.61-.36.91.71.53 1.67.76 2.68.47.94-.27 1.71-1.04 1.98-1.98.29-1.01.07-1.97-.47-2.68"/><path fill="#310E31" d="M47.004 34.504a2.5 2.5 0 0 0 0 5 2.5 2.5 0 0 0 0-5m0 6c-1.93 0-3.5-1.57-3.5-3.5s1.57-3.5 3.5-3.5 3.5 1.57 3.5 3.5-1.57 3.5-3.5 3.5"/><path fill="#FFFBD4" d="M46.254 35.504a.75.75 0 1 1 0 1.5.75.75 0 0 1 0-1.5"/><path fill="#FFE178" d="M41.754 46.354c.15-.43.25-.87.25-1.35 0-.58-.13-1.13-.35-1.63-.28-.62-.34-1.35-.01-1.95.31-.56.44-1.22.32-1.92-.2-1.22-1.2-2.24-2.42-2.45a3 3 0 0 0-3.54 2.95c0 .11.01.22.02.32.08.67-.25 1.3-.74 1.76-.79.73-1.28 1.76-1.28 2.92 0 2.21 1.79 4 4 4 .02 0 .03 0 .05-.01.26 1.27 1.48 2.2 2.87 1.97 1.08-.17 1.95-1.1 2.07-2.19.11-1.03-.42-1.95-1.24-2.42"/><path fill="#FBB653" d="M41.184 42.584a.666.666 0 0 0-.33-.23c.48-.37.85-.87 1.02-1.46.25-.86.12-1.69-.26-2.36-.29-.52-1.08-.34-1.13.25a2.985 2.985 0 0 1-2.66 2.7c-.59.06-.8.85-.28 1.14.15.08.3.16.47.21.09.03.21.06.34.07.99.11 1.62 1.21 1.14 2.08 0 .01-.01.01-.01.02-.17.3-.38.57-.64.83-.78.78-1.81 1.17-2.83 1.16-.64 0-.92.8-.41 1.19.89.68 2.08 1 3.34.72a3.965 3.965 0 0 0 2.96-2.92c.29-1.28-.03-2.49-.72-3.4"/><path fill="#FBB653" d="M40.504 46.004a2.5 2.5 0 1 1 0 5 2.5 2.5 0 0 1 0-5"/><path fill="#310E31" d="M39.004 37.504c-.59 0-1.15.2-1.6.59a2.48 2.48 0 0 0-.89 1.91c0 .09.01.18.02.26.09.77-.24 1.57-.9 2.18a3.44 3.44 0 0 0-1.13 2.56c0 1.93 1.57 3.5 3.5 3.5.24 0 .49.16.54.4.21 1.06 1.22 1.75 2.3 1.58.86-.14 1.56-.88 1.65-1.75a1.96 1.96 0 0 0-.99-1.94.497.497 0 0 1-.22-.6 3.335 3.335 0 0 0-.09-2.6c-.38-.83-.38-1.71 0-2.4.27-.49.36-1.04.27-1.6-.17-1.02-1-1.86-2.01-2.04-.15-.04-.3-.05-.45-.05m1.5 14c-1.28 0-2.42-.81-2.84-2.02-2.35-.19-4.16-2.13-4.16-4.48 0-1.24.52-2.44 1.44-3.29.42-.39.64-.88.58-1.33a3.505 3.505 0 0 1 1.23-3.06 3.51 3.51 0 0 1 2.88-.77c1.43.25 2.59 1.42 2.83 2.86.13.79 0 1.56-.38 2.25-.23.41-.22.96.03 1.5.26.58.4 1.2.4 1.84 0 .38-.05.75-.16 1.14.82.64 1.26 1.63 1.14 2.69-.14 1.31-1.19 2.42-2.48 2.63a3 3 0 0 1-.51.04"/><path fill="#FFFBD4" d="M38.504 39.004a.5.5 0 1 1 0 1 .5.5 0 0 1 0-1m-2.5 4a1 1 0 1 1 0 2 1 1 0 0 1 0-2"/></g></svg>