<svg xmlns="http://www.w3.org/2000/svg" width="28" height="14" viewBox="0 0 28 14"><g fill="none" fill-rule="evenodd"><path fill="#00247D" d="M0 14h28V0H0z"/><path fill="#FFF" d="M24.87 0L14 5.435 3.13 0H0v1.565L10.87 7 0 12.434V14h3.13L14 8.566 24.869 14H28v-1.566L17.13 7 28 1.565V0z"/><path fill="#CF142B" d="M25.915 0L13.999 5.957V7l14-7zM0 14h2.085L14 8.044V7z"/><path fill="#CF142B" d="M0 0v1.043L11.915 7H14zm14 7l14 7v-1.043L16.084 7z"/><path fill="#FFF" d="M11.667 0v4.667H0v4.666h11.667V14h4.666V9.333H28V4.667H16.333V0z"/><path fill="#CF142B" d="M12.6 0v5.6H0v2.8h12.6V14h2.8V8.4H28V5.6H15.4V0z"/></g></svg>