<svg xmlns="http://www.w3.org/2000/svg" xmlns:xlink="http://www.w3.org/1999/xlink" width="30" height="26" viewBox="0 0 30 26"><defs><path id="a" d="M0 0h30v26.252H0z"/></defs><clipPath id="b"><use xlink:href="#a" overflow="visible"/></clipPath><path clip-path="url(#b)" d="M1.012 26.252h27.977c.361 0 .695-.192.876-.507a1.006 1.006 0 0 0 0-1.012L15.877.506a1.013 1.013 0 0 0-1.753 0L.136 24.733a1.01 1.01 0 0 0 .876 1.519"/><path clip-path="url(#b)" fill="#FF0" d="M15 3.047l12.226 21.176H2.774z"/><path clip-path="url(#b)" d="M15 19.656a1.401 1.401 0 1 1 0 2.802 1.401 1.401 0 0 1 0-2.802M15.852 18.08l1.005-9.165a1.878 1.878 0 1 0-3.685.26l1.045 9.096a.822.822 0 1 0 1.635-.191"/></svg>