<svg xmlns="http://www.w3.org/2000/svg" width="53" height="28" viewBox="0 0 53 28"><path fill="#A0A0A0" fill-rule="evenodd" d="M31.388 0c2.208 0 2.69 1.447 3.614 1.447.488 0 .834-.35 1.042-1.116l.043-.17h.482V9.32h-.763c-.482-4.54-1.567-8.276-4.46-8.276-2.008 0-2.49 1.93-2.49 3.214 0 5.986 9.038 8.155 9.038 16.39 0 4.259-2.731 7.352-6.307 7.352-2.329 0-3.133-1.607-3.896-1.607-.42 0-.911.109-1.304 1.256l-.061.19h-.483V18.68h.765c.481 5.103 2.25 8.276 4.941 8.276 1.808 0 3.133-1.608 3.133-4.46 0-6.267-9.039-9.118-9.039-15.908C25.643 2.852 27.974 0 31.388 0zm20.984.16v.724l-.884.241c-.802.201-1.083.563-1.083 1.687v18.64c0 4.295-2.571 6.547-5.906 6.547-3.012 0-4.78-2.45-4.74-5.142.04-2.09 1.567-3.133 2.812-2.972a1.852 1.852 0 0 1 1.647 2.169c-.16 2.008-2.25 1.927-2.37 3.173-.043.724.924 1.729 2.21 1.729 2.01 0 2.252-2.169 2.252-4.86V2.771c0-1.165-.443-1.446-1.246-1.647L44.06.885V.16h8.312zM7.914.16v.724l-.603.12c-1.238.232-1.172 1.396-.843 2.953l.04.181 3.07 15.145L11.931 6.87l-.76-3.656c-.306-1.456-.43-1.96-1.135-2.179l-.11-.03-.524-.121V.161h7.751v.723l-.883.16c-1.278.233-1.138 1.433-.839 2.921l.035.173 2.978 15.26L21.37 4.98c.545-2.882.297-3.65-.816-3.913l-.107-.024-.844-.16V.161h5.664v.722l-.763.2c-.928.234-1.222 1.024-1.71 3.27l-.058.266-4.9 23.301H16.39L12.587 9.574 9.119 27.92H7.472L2.37 3.856C1.906 1.73 1.516 1.315.842 1.108l-.079-.023L0 .884V.161h7.914z"/></svg>